<?xml version="1.0" encoding="utf-8" standalone="no"?>
<!DOCTYPE svg PUBLIC "-//W3C//DTD SVG 1.1//EN"
  "http://www.w3.org/Graphics/SVG/1.1/DTD/svg11.dtd">
<svg xmlns:xlink="http://www.w3.org/1999/xlink" width="857.44675pt" height="181.419375pt" viewBox="0 0 857.44675 181.419375" xmlns="http://www.w3.org/2000/svg" version="1.1">
 <metadata>
  <rdf:RDF xmlns:dc="http://purl.org/dc/elements/1.1/" xmlns:cc="http://creativecommons.org/ns#" xmlns:rdf="http://www.w3.org/1999/02/22-rdf-syntax-ns#">
   <cc:Work>
    <dc:type rdf:resource="http://purl.org/dc/dcmitype/StillImage"/>
    <dc:date>2023-05-07T13:39:14.708265</dc:date>
    <dc:format>image/svg+xml</dc:format>
    <dc:creator>
     <cc:Agent>
      <dc:title>Matplotlib v3.7.1, https://matplotlib.org/</dc:title>
     </cc:Agent>
    </dc:creator>
   </cc:Work>
  </rdf:RDF>
 </metadata>
 <defs>
  <style type="text/css">*{stroke-linejoin: round; stroke-linecap: butt}</style>
 </defs>
 <g id="figure_1">
  <g id="patch_1">
   <path d="M 0 181.419375 
L 857.44675 181.419375 
L 857.44675 0 
L 0 0 
z
" style="fill: #ffffff"/>
  </g>
  <g id="axes_1">
   <g id="patch_2">
    <path d="M 40.624 145.092 
L 166.921125 145.092 
L 166.921125 30.6 
L 40.624 30.6 
z
" style="fill: #ffffff"/>
   </g>
   <g id="matplotlib.axis_1">
    <g id="xtick_1">
     <g id="line2d_1">
      <path d="M 46.364778 145.092 
L 46.364778 30.6 
" clip-path="url(#pe51cb88da5)" style="fill: none; stroke: #cccccc; stroke-width: 0.8; stroke-linecap: round"/>
     </g>
     <g id="text_1">
      <!-- 0 -->
      <g style="fill: #262626" transform="translate(43.917966 159.690875) scale(0.088 -0.088)">
       <defs>
        <path id="ArialMT-30" d="M 266 2259 
Q 266 3072 433 3567 
Q 600 4063 929 4331 
Q 1259 4600 1759 4600 
Q 2128 4600 2406 4451 
Q 2684 4303 2865 4023 
Q 3047 3744 3150 3342 
Q 3253 2941 3253 2259 
Q 3253 1453 3087 958 
Q 2922 463 2592 192 
Q 2263 -78 1759 -78 
Q 1097 -78 719 397 
Q 266 969 266 2259 
z
M 844 2259 
Q 844 1131 1108 757 
Q 1372 384 1759 384 
Q 2147 384 2411 759 
Q 2675 1134 2675 2259 
Q 2675 3391 2411 3762 
Q 2147 4134 1753 4134 
Q 1366 4134 1134 3806 
Q 844 3388 844 2259 
z
" transform="scale(0.015625)"/>
       </defs>
       <use xlink:href="#ArialMT-30"/>
      </g>
     </g>
    </g>
    <g id="xtick_2">
     <g id="line2d_2">
      <path d="M 69.327892 145.092 
L 69.327892 30.6 
" clip-path="url(#pe51cb88da5)" style="fill: none; stroke: #cccccc; stroke-width: 0.8; stroke-linecap: round"/>
     </g>
     <g id="text_2">
      <!-- 1 -->
      <g style="fill: #262626" transform="translate(66.88108 159.690875) scale(0.088 -0.088)">
       <defs>
        <path id="ArialMT-31" d="M 2384 0 
L 1822 0 
L 1822 3584 
Q 1619 3391 1289 3197 
Q 959 3003 697 2906 
L 697 3450 
Q 1169 3672 1522 3987 
Q 1875 4303 2022 4600 
L 2384 4600 
L 2384 0 
z
" transform="scale(0.015625)"/>
       </defs>
       <use xlink:href="#ArialMT-31"/>
      </g>
     </g>
    </g>
    <g id="xtick_3">
     <g id="line2d_3">
      <path d="M 92.291006 145.092 
L 92.291006 30.6 
" clip-path="url(#pe51cb88da5)" style="fill: none; stroke: #cccccc; stroke-width: 0.8; stroke-linecap: round"/>
     </g>
     <g id="text_3">
      <!-- 2 -->
      <g style="fill: #262626" transform="translate(89.844193 159.690875) scale(0.088 -0.088)">
       <defs>
        <path id="ArialMT-32" d="M 3222 541 
L 3222 0 
L 194 0 
Q 188 203 259 391 
Q 375 700 629 1000 
Q 884 1300 1366 1694 
Q 2113 2306 2375 2664 
Q 2638 3022 2638 3341 
Q 2638 3675 2398 3904 
Q 2159 4134 1775 4134 
Q 1369 4134 1125 3890 
Q 881 3647 878 3216 
L 300 3275 
Q 359 3922 746 4261 
Q 1134 4600 1788 4600 
Q 2447 4600 2831 4234 
Q 3216 3869 3216 3328 
Q 3216 3053 3103 2787 
Q 2991 2522 2730 2228 
Q 2469 1934 1863 1422 
Q 1356 997 1212 845 
Q 1069 694 975 541 
L 3222 541 
z
" transform="scale(0.015625)"/>
       </defs>
       <use xlink:href="#ArialMT-32"/>
      </g>
     </g>
    </g>
    <g id="xtick_4">
     <g id="line2d_4">
      <path d="M 115.254119 145.092 
L 115.254119 30.6 
" clip-path="url(#pe51cb88da5)" style="fill: none; stroke: #cccccc; stroke-width: 0.8; stroke-linecap: round"/>
     </g>
     <g id="text_4">
      <!-- 3 -->
      <g style="fill: #262626" transform="translate(112.807307 159.690875) scale(0.088 -0.088)">
       <defs>
        <path id="ArialMT-33" d="M 269 1209 
L 831 1284 
Q 928 806 1161 595 
Q 1394 384 1728 384 
Q 2125 384 2398 659 
Q 2672 934 2672 1341 
Q 2672 1728 2419 1979 
Q 2166 2231 1775 2231 
Q 1616 2231 1378 2169 
L 1441 2663 
Q 1497 2656 1531 2656 
Q 1891 2656 2178 2843 
Q 2466 3031 2466 3422 
Q 2466 3731 2256 3934 
Q 2047 4138 1716 4138 
Q 1388 4138 1169 3931 
Q 950 3725 888 3313 
L 325 3413 
Q 428 3978 793 4289 
Q 1159 4600 1703 4600 
Q 2078 4600 2393 4439 
Q 2709 4278 2876 4000 
Q 3044 3722 3044 3409 
Q 3044 3113 2884 2869 
Q 2725 2625 2413 2481 
Q 2819 2388 3044 2092 
Q 3269 1797 3269 1353 
Q 3269 753 2831 336 
Q 2394 -81 1725 -81 
Q 1122 -81 723 278 
Q 325 638 269 1209 
z
" transform="scale(0.015625)"/>
       </defs>
       <use xlink:href="#ArialMT-33"/>
      </g>
     </g>
    </g>
    <g id="xtick_5">
     <g id="line2d_5">
      <path d="M 138.217233 145.092 
L 138.217233 30.6 
" clip-path="url(#pe51cb88da5)" style="fill: none; stroke: #cccccc; stroke-width: 0.8; stroke-linecap: round"/>
     </g>
     <g id="text_5">
      <!-- 4 -->
      <g style="fill: #262626" transform="translate(135.77042 159.690875) scale(0.088 -0.088)">
       <defs>
        <path id="ArialMT-34" d="M 2069 0 
L 2069 1097 
L 81 1097 
L 81 1613 
L 2172 4581 
L 2631 4581 
L 2631 1613 
L 3250 1613 
L 3250 1097 
L 2631 1097 
L 2631 0 
L 2069 0 
z
M 2069 1613 
L 2069 3678 
L 634 1613 
L 2069 1613 
z
" transform="scale(0.015625)"/>
       </defs>
       <use xlink:href="#ArialMT-34"/>
      </g>
     </g>
    </g>
    <g id="xtick_6">
     <g id="line2d_6">
      <path d="M 161.180347 145.092 
L 161.180347 30.6 
" clip-path="url(#pe51cb88da5)" style="fill: none; stroke: #cccccc; stroke-width: 0.8; stroke-linecap: round"/>
     </g>
     <g id="text_6">
      <!-- 5 -->
      <g style="fill: #262626" transform="translate(158.733534 159.690875) scale(0.088 -0.088)">
       <defs>
        <path id="ArialMT-35" d="M 266 1200 
L 856 1250 
Q 922 819 1161 601 
Q 1400 384 1738 384 
Q 2144 384 2425 690 
Q 2706 997 2706 1503 
Q 2706 1984 2436 2262 
Q 2166 2541 1728 2541 
Q 1456 2541 1237 2417 
Q 1019 2294 894 2097 
L 366 2166 
L 809 4519 
L 3088 4519 
L 3088 3981 
L 1259 3981 
L 1013 2750 
Q 1425 3038 1878 3038 
Q 2478 3038 2890 2622 
Q 3303 2206 3303 1553 
Q 3303 931 2941 478 
Q 2500 -78 1738 -78 
Q 1113 -78 717 272 
Q 322 622 266 1200 
z
" transform="scale(0.015625)"/>
       </defs>
       <use xlink:href="#ArialMT-35"/>
      </g>
     </g>
    </g>
    <g id="text_7">
     <!-- score -->
     <g style="fill: #262626" transform="translate(92.035812 172.311375) scale(0.096 -0.096)">
      <defs>
       <path id="ArialMT-73" d="M 197 991 
L 753 1078 
Q 800 744 1014 566 
Q 1228 388 1613 388 
Q 2000 388 2187 545 
Q 2375 703 2375 916 
Q 2375 1106 2209 1216 
Q 2094 1291 1634 1406 
Q 1016 1563 777 1677 
Q 538 1791 414 1992 
Q 291 2194 291 2438 
Q 291 2659 392 2848 
Q 494 3038 669 3163 
Q 800 3259 1026 3326 
Q 1253 3394 1513 3394 
Q 1903 3394 2198 3281 
Q 2494 3169 2634 2976 
Q 2775 2784 2828 2463 
L 2278 2388 
Q 2241 2644 2061 2787 
Q 1881 2931 1553 2931 
Q 1166 2931 1000 2803 
Q 834 2675 834 2503 
Q 834 2394 903 2306 
Q 972 2216 1119 2156 
Q 1203 2125 1616 2013 
Q 2213 1853 2448 1751 
Q 2684 1650 2818 1456 
Q 2953 1263 2953 975 
Q 2953 694 2789 445 
Q 2625 197 2315 61 
Q 2006 -75 1616 -75 
Q 969 -75 630 194 
Q 291 463 197 991 
z
" transform="scale(0.015625)"/>
       <path id="ArialMT-63" d="M 2588 1216 
L 3141 1144 
Q 3050 572 2676 248 
Q 2303 -75 1759 -75 
Q 1078 -75 664 370 
Q 250 816 250 1647 
Q 250 2184 428 2587 
Q 606 2991 970 3192 
Q 1334 3394 1763 3394 
Q 2303 3394 2647 3120 
Q 2991 2847 3088 2344 
L 2541 2259 
Q 2463 2594 2264 2762 
Q 2066 2931 1784 2931 
Q 1359 2931 1093 2626 
Q 828 2322 828 1663 
Q 828 994 1084 691 
Q 1341 388 1753 388 
Q 2084 388 2306 591 
Q 2528 794 2588 1216 
z
" transform="scale(0.015625)"/>
       <path id="ArialMT-6f" d="M 213 1659 
Q 213 2581 725 3025 
Q 1153 3394 1769 3394 
Q 2453 3394 2887 2945 
Q 3322 2497 3322 1706 
Q 3322 1066 3130 698 
Q 2938 331 2570 128 
Q 2203 -75 1769 -75 
Q 1072 -75 642 372 
Q 213 819 213 1659 
z
M 791 1659 
Q 791 1022 1069 705 
Q 1347 388 1769 388 
Q 2188 388 2466 706 
Q 2744 1025 2744 1678 
Q 2744 2294 2464 2611 
Q 2184 2928 1769 2928 
Q 1347 2928 1069 2612 
Q 791 2297 791 1659 
z
" transform="scale(0.015625)"/>
       <path id="ArialMT-72" d="M 416 0 
L 416 3319 
L 922 3319 
L 922 2816 
Q 1116 3169 1280 3281 
Q 1444 3394 1641 3394 
Q 1925 3394 2219 3213 
L 2025 2691 
Q 1819 2813 1613 2813 
Q 1428 2813 1281 2702 
Q 1134 2591 1072 2394 
Q 978 2094 978 1738 
L 978 0 
L 416 0 
z
" transform="scale(0.015625)"/>
       <path id="ArialMT-65" d="M 2694 1069 
L 3275 997 
Q 3138 488 2766 206 
Q 2394 -75 1816 -75 
Q 1088 -75 661 373 
Q 234 822 234 1631 
Q 234 2469 665 2931 
Q 1097 3394 1784 3394 
Q 2450 3394 2872 2941 
Q 3294 2488 3294 1666 
Q 3294 1616 3291 1516 
L 816 1516 
Q 847 969 1125 678 
Q 1403 388 1819 388 
Q 2128 388 2347 550 
Q 2566 713 2694 1069 
z
M 847 1978 
L 2700 1978 
Q 2663 2397 2488 2606 
Q 2219 2931 1791 2931 
Q 1403 2931 1139 2672 
Q 875 2413 847 1978 
z
" transform="scale(0.015625)"/>
      </defs>
      <use xlink:href="#ArialMT-73"/>
      <use xlink:href="#ArialMT-63" x="50"/>
      <use xlink:href="#ArialMT-6f" x="100"/>
      <use xlink:href="#ArialMT-72" x="155.615234"/>
      <use xlink:href="#ArialMT-65" x="188.916016"/>
     </g>
    </g>
   </g>
   <g id="matplotlib.axis_2">
    <g id="ytick_1">
     <g id="line2d_7">
      <path d="M 40.624 145.092 
L 166.921125 145.092 
" clip-path="url(#pe51cb88da5)" style="fill: none; stroke: #cccccc; stroke-width: 0.8; stroke-linecap: round"/>
     </g>
     <g id="text_8">
      <!-- 0.0 -->
      <g style="fill: #262626" transform="translate(20.092 148.241437) scale(0.088 -0.088)">
       <defs>
        <path id="ArialMT-2e" d="M 581 0 
L 581 641 
L 1222 641 
L 1222 0 
L 581 0 
z
" transform="scale(0.015625)"/>
       </defs>
       <use xlink:href="#ArialMT-30"/>
       <use xlink:href="#ArialMT-2e" x="55.615234"/>
       <use xlink:href="#ArialMT-30" x="83.398438"/>
      </g>
     </g>
    </g>
    <g id="ytick_2">
     <g id="line2d_8">
      <path d="M 40.624 117.29749 
L 166.921125 117.29749 
" clip-path="url(#pe51cb88da5)" style="fill: none; stroke: #cccccc; stroke-width: 0.8; stroke-linecap: round"/>
     </g>
     <g id="text_9">
      <!-- 0.2 -->
      <g style="fill: #262626" transform="translate(20.092 120.446928) scale(0.088 -0.088)">
       <use xlink:href="#ArialMT-30"/>
       <use xlink:href="#ArialMT-2e" x="55.615234"/>
       <use xlink:href="#ArialMT-32" x="83.398438"/>
      </g>
     </g>
    </g>
    <g id="ytick_3">
     <g id="line2d_9">
      <path d="M 40.624 89.50298 
L 166.921125 89.50298 
" clip-path="url(#pe51cb88da5)" style="fill: none; stroke: #cccccc; stroke-width: 0.8; stroke-linecap: round"/>
     </g>
     <g id="text_10">
      <!-- 0.4 -->
      <g style="fill: #262626" transform="translate(20.092 92.652418) scale(0.088 -0.088)">
       <use xlink:href="#ArialMT-30"/>
       <use xlink:href="#ArialMT-2e" x="55.615234"/>
       <use xlink:href="#ArialMT-34" x="83.398438"/>
      </g>
     </g>
    </g>
    <g id="ytick_4">
     <g id="line2d_10">
      <path d="M 40.624 61.708471 
L 166.921125 61.708471 
" clip-path="url(#pe51cb88da5)" style="fill: none; stroke: #cccccc; stroke-width: 0.8; stroke-linecap: round"/>
     </g>
     <g id="text_11">
      <!-- 0.6 -->
      <g style="fill: #262626" transform="translate(20.092 64.857908) scale(0.088 -0.088)">
       <defs>
        <path id="ArialMT-36" d="M 3184 3459 
L 2625 3416 
Q 2550 3747 2413 3897 
Q 2184 4138 1850 4138 
Q 1581 4138 1378 3988 
Q 1113 3794 959 3422 
Q 806 3050 800 2363 
Q 1003 2672 1297 2822 
Q 1591 2972 1913 2972 
Q 2475 2972 2870 2558 
Q 3266 2144 3266 1488 
Q 3266 1056 3080 686 
Q 2894 316 2569 119 
Q 2244 -78 1831 -78 
Q 1128 -78 684 439 
Q 241 956 241 2144 
Q 241 3472 731 4075 
Q 1159 4600 1884 4600 
Q 2425 4600 2770 4297 
Q 3116 3994 3184 3459 
z
M 888 1484 
Q 888 1194 1011 928 
Q 1134 663 1356 523 
Q 1578 384 1822 384 
Q 2178 384 2434 671 
Q 2691 959 2691 1453 
Q 2691 1928 2437 2201 
Q 2184 2475 1800 2475 
Q 1419 2475 1153 2201 
Q 888 1928 888 1484 
z
" transform="scale(0.015625)"/>
       </defs>
       <use xlink:href="#ArialMT-30"/>
       <use xlink:href="#ArialMT-2e" x="55.615234"/>
       <use xlink:href="#ArialMT-36" x="83.398438"/>
      </g>
     </g>
    </g>
    <g id="ytick_5">
     <g id="line2d_11">
      <path d="M 40.624 33.913961 
L 166.921125 33.913961 
" clip-path="url(#pe51cb88da5)" style="fill: none; stroke: #cccccc; stroke-width: 0.8; stroke-linecap: round"/>
     </g>
     <g id="text_12">
      <!-- 0.8 -->
      <g style="fill: #262626" transform="translate(20.092 37.063398) scale(0.088 -0.088)">
       <defs>
        <path id="ArialMT-38" d="M 1131 2484 
Q 781 2613 612 2850 
Q 444 3088 444 3419 
Q 444 3919 803 4259 
Q 1163 4600 1759 4600 
Q 2359 4600 2725 4251 
Q 3091 3903 3091 3403 
Q 3091 3084 2923 2848 
Q 2756 2613 2416 2484 
Q 2838 2347 3058 2040 
Q 3278 1734 3278 1309 
Q 3278 722 2862 322 
Q 2447 -78 1769 -78 
Q 1091 -78 675 323 
Q 259 725 259 1325 
Q 259 1772 486 2073 
Q 713 2375 1131 2484 
z
M 1019 3438 
Q 1019 3113 1228 2906 
Q 1438 2700 1772 2700 
Q 2097 2700 2305 2904 
Q 2513 3109 2513 3406 
Q 2513 3716 2298 3927 
Q 2084 4138 1766 4138 
Q 1444 4138 1231 3931 
Q 1019 3725 1019 3438 
z
M 838 1322 
Q 838 1081 952 856 
Q 1066 631 1291 507 
Q 1516 384 1775 384 
Q 2178 384 2440 643 
Q 2703 903 2703 1303 
Q 2703 1709 2433 1975 
Q 2163 2241 1756 2241 
Q 1359 2241 1098 1978 
Q 838 1716 838 1322 
z
" transform="scale(0.015625)"/>
       </defs>
       <use xlink:href="#ArialMT-30"/>
       <use xlink:href="#ArialMT-2e" x="55.615234"/>
       <use xlink:href="#ArialMT-38" x="83.398438"/>
      </g>
     </g>
    </g>
    <g id="text_13">
     <!-- Density -->
     <g style="fill: #262626" transform="translate(14.0715 103.851) rotate(-90) scale(0.096 -0.096)">
      <defs>
       <path id="ArialMT-44" d="M 494 0 
L 494 4581 
L 2072 4581 
Q 2606 4581 2888 4516 
Q 3281 4425 3559 4188 
Q 3922 3881 4101 3404 
Q 4281 2928 4281 2316 
Q 4281 1794 4159 1391 
Q 4038 988 3847 723 
Q 3656 459 3429 307 
Q 3203 156 2883 78 
Q 2563 0 2147 0 
L 494 0 
z
M 1100 541 
L 2078 541 
Q 2531 541 2789 625 
Q 3047 709 3200 863 
Q 3416 1078 3536 1442 
Q 3656 1806 3656 2325 
Q 3656 3044 3420 3430 
Q 3184 3816 2847 3947 
Q 2603 4041 2063 4041 
L 1100 4041 
L 1100 541 
z
" transform="scale(0.015625)"/>
       <path id="ArialMT-6e" d="M 422 0 
L 422 3319 
L 928 3319 
L 928 2847 
Q 1294 3394 1984 3394 
Q 2284 3394 2536 3286 
Q 2788 3178 2913 3003 
Q 3038 2828 3088 2588 
Q 3119 2431 3119 2041 
L 3119 0 
L 2556 0 
L 2556 2019 
Q 2556 2363 2490 2533 
Q 2425 2703 2258 2804 
Q 2091 2906 1866 2906 
Q 1506 2906 1245 2678 
Q 984 2450 984 1813 
L 984 0 
L 422 0 
z
" transform="scale(0.015625)"/>
       <path id="ArialMT-69" d="M 425 3934 
L 425 4581 
L 988 4581 
L 988 3934 
L 425 3934 
z
M 425 0 
L 425 3319 
L 988 3319 
L 988 0 
L 425 0 
z
" transform="scale(0.015625)"/>
       <path id="ArialMT-74" d="M 1650 503 
L 1731 6 
Q 1494 -44 1306 -44 
Q 1000 -44 831 53 
Q 663 150 594 308 
Q 525 466 525 972 
L 525 2881 
L 113 2881 
L 113 3319 
L 525 3319 
L 525 4141 
L 1084 4478 
L 1084 3319 
L 1650 3319 
L 1650 2881 
L 1084 2881 
L 1084 941 
Q 1084 700 1114 631 
Q 1144 563 1211 522 
Q 1278 481 1403 481 
Q 1497 481 1650 503 
z
" transform="scale(0.015625)"/>
       <path id="ArialMT-79" d="M 397 -1278 
L 334 -750 
Q 519 -800 656 -800 
Q 844 -800 956 -737 
Q 1069 -675 1141 -563 
Q 1194 -478 1313 -144 
Q 1328 -97 1363 -6 
L 103 3319 
L 709 3319 
L 1400 1397 
Q 1534 1031 1641 628 
Q 1738 1016 1872 1384 
L 2581 3319 
L 3144 3319 
L 1881 -56 
Q 1678 -603 1566 -809 
Q 1416 -1088 1222 -1217 
Q 1028 -1347 759 -1347 
Q 597 -1347 397 -1278 
z
" transform="scale(0.015625)"/>
      </defs>
      <use xlink:href="#ArialMT-44"/>
      <use xlink:href="#ArialMT-65" x="72.216797"/>
      <use xlink:href="#ArialMT-6e" x="127.832031"/>
      <use xlink:href="#ArialMT-73" x="183.447266"/>
      <use xlink:href="#ArialMT-69" x="233.447266"/>
      <use xlink:href="#ArialMT-74" x="255.664062"/>
      <use xlink:href="#ArialMT-79" x="283.447266"/>
     </g>
    </g>
   </g>
   <g id="patch_3">
    <path d="M 46.364778 145.092 
L 69.327892 145.092 
L 69.327892 145.092 
L 46.364778 145.092 
z
" clip-path="url(#pe51cb88da5)" style="fill: #008000; fill-opacity: 0.5; stroke: #ffffff; stroke-width: 0.8; stroke-linejoin: miter"/>
   </g>
   <g id="patch_4">
    <path d="M 69.327892 145.092 
L 92.291006 145.092 
L 92.291006 144.02298 
L 69.327892 144.02298 
z
" clip-path="url(#pe51cb88da5)" style="fill: #008000; fill-opacity: 0.5; stroke: #ffffff; stroke-width: 0.8; stroke-linejoin: miter"/>
   </g>
   <g id="patch_5">
    <path d="M 92.291006 145.092 
L 115.254119 145.092 
L 115.254119 134.401804 
L 92.291006 134.401804 
z
" clip-path="url(#pe51cb88da5)" style="fill: #008000; fill-opacity: 0.5; stroke: #ffffff; stroke-width: 0.8; stroke-linejoin: miter"/>
   </g>
   <g id="patch_6">
    <path d="M 115.254119 145.092 
L 138.217233 145.092 
L 138.217233 126.918667 
L 115.254119 126.918667 
z
" clip-path="url(#pe51cb88da5)" style="fill: #008000; fill-opacity: 0.5; stroke: #ffffff; stroke-width: 0.8; stroke-linejoin: miter"/>
   </g>
   <g id="patch_7">
    <path d="M 138.217233 145.092 
L 161.180347 145.092 
L 161.180347 36.052 
L 138.217233 36.052 
z
" clip-path="url(#pe51cb88da5)" style="fill: #008000; fill-opacity: 0.5; stroke: #ffffff; stroke-width: 0.8; stroke-linejoin: miter"/>
   </g>
   <g id="line2d_12">
    <path d="M 69.327892 143.640895 
L 72.558883 143.244103 
L 74.866734 142.754751 
L 76.713014 142.157872 
L 78.559295 141.332194 
L 80.405575 140.264995 
L 82.713426 138.641313 
L 87.790697 134.856456 
L 89.636977 133.83541 
L 91.021688 133.308532 
L 92.406398 133.005876 
L 93.791109 132.915401 
L 95.637389 133.051009 
L 99.79152 133.545423 
L 101.176231 133.456051 
L 102.560941 133.119717 
L 103.945651 132.504286 
L 105.330362 131.614524 
L 107.176642 130.080664 
L 112.253914 125.503255 
L 113.638624 124.631042 
L 115.023334 124.038244 
L 116.408045 123.714311 
L 118.254325 123.581862 
L 120.562176 123.474418 
L 121.946886 123.151368 
L 122.870026 122.724606 
L 123.793167 122.078452 
L 124.716307 121.180029 
L 125.639447 120.008741 
L 126.562587 118.558558 
L 127.947298 115.886859 
L 129.332008 112.717654 
L 134.409279 100.301047 
L 135.79399 97.83456 
L 136.71713 96.624776 
L 137.64027 95.799332 
L 138.563411 95.365107 
L 139.486551 95.305461 
L 140.409691 95.580308 
L 141.332831 96.127706 
L 142.717542 97.27919 
L 144.563822 98.909843 
L 145.486962 99.52871 
L 146.410103 99.883303 
L 147.333243 99.88927 
L 148.256383 99.481868 
L 149.179523 98.620769 
L 150.102664 97.293525 
L 151.025804 95.517446 
L 152.410514 92.122807 
L 154.256795 86.693018 
L 156.564645 79.820592 
L 157.949356 76.473848 
L 158.872496 74.835811 
L 159.795636 73.79525 
L 160.257206 73.524501 
L 160.718776 73.430204 
L 161.180347 73.517579 
L 161.180347 73.517579 
" clip-path="url(#pe51cb88da5)" style="fill: none; stroke: #008000; stroke-width: 1.2; stroke-linecap: round"/>
   </g>
   <g id="patch_8">
    <path d="M 40.624 145.092 
L 40.624 30.6 
" style="fill: none; stroke: #cccccc; stroke-linejoin: miter; stroke-linecap: square"/>
   </g>
   <g id="patch_9">
    <path d="M 40.624 145.092 
L 166.921125 145.092 
" style="fill: none; stroke: #cccccc; stroke-linejoin: miter; stroke-linecap: square"/>
   </g>
   <g id="text_14">
    <!-- Crowdsource interest -->
    <g style="fill: #262626" transform="translate(58.423812 24.6) scale(0.096 -0.096)">
     <defs>
      <path id="ArialMT-43" d="M 3763 1606 
L 4369 1453 
Q 4178 706 3683 314 
Q 3188 -78 2472 -78 
Q 1731 -78 1267 223 
Q 803 525 561 1097 
Q 319 1669 319 2325 
Q 319 3041 592 3573 
Q 866 4106 1370 4382 
Q 1875 4659 2481 4659 
Q 3169 4659 3637 4309 
Q 4106 3959 4291 3325 
L 3694 3184 
Q 3534 3684 3231 3912 
Q 2928 4141 2469 4141 
Q 1941 4141 1586 3887 
Q 1231 3634 1087 3207 
Q 944 2781 944 2328 
Q 944 1744 1114 1308 
Q 1284 872 1643 656 
Q 2003 441 2422 441 
Q 2931 441 3284 734 
Q 3638 1028 3763 1606 
z
" transform="scale(0.015625)"/>
      <path id="ArialMT-77" d="M 1034 0 
L 19 3319 
L 600 3319 
L 1128 1403 
L 1325 691 
Q 1338 744 1497 1375 
L 2025 3319 
L 2603 3319 
L 3100 1394 
L 3266 759 
L 3456 1400 
L 4025 3319 
L 4572 3319 
L 3534 0 
L 2950 0 
L 2422 1988 
L 2294 2553 
L 1622 0 
L 1034 0 
z
" transform="scale(0.015625)"/>
      <path id="ArialMT-64" d="M 2575 0 
L 2575 419 
Q 2259 -75 1647 -75 
Q 1250 -75 917 144 
Q 584 363 401 755 
Q 219 1147 219 1656 
Q 219 2153 384 2558 
Q 550 2963 881 3178 
Q 1213 3394 1622 3394 
Q 1922 3394 2156 3267 
Q 2391 3141 2538 2938 
L 2538 4581 
L 3097 4581 
L 3097 0 
L 2575 0 
z
M 797 1656 
Q 797 1019 1065 703 
Q 1334 388 1700 388 
Q 2069 388 2326 689 
Q 2584 991 2584 1609 
Q 2584 2291 2321 2609 
Q 2059 2928 1675 2928 
Q 1300 2928 1048 2622 
Q 797 2316 797 1656 
z
" transform="scale(0.015625)"/>
      <path id="ArialMT-75" d="M 2597 0 
L 2597 488 
Q 2209 -75 1544 -75 
Q 1250 -75 995 37 
Q 741 150 617 320 
Q 494 491 444 738 
Q 409 903 409 1263 
L 409 3319 
L 972 3319 
L 972 1478 
Q 972 1038 1006 884 
Q 1059 663 1231 536 
Q 1403 409 1656 409 
Q 1909 409 2131 539 
Q 2353 669 2445 892 
Q 2538 1116 2538 1541 
L 2538 3319 
L 3100 3319 
L 3100 0 
L 2597 0 
z
" transform="scale(0.015625)"/>
      <path id="ArialMT-20" transform="scale(0.015625)"/>
     </defs>
     <use xlink:href="#ArialMT-43"/>
     <use xlink:href="#ArialMT-72" x="72.216797"/>
     <use xlink:href="#ArialMT-6f" x="105.517578"/>
     <use xlink:href="#ArialMT-77" x="161.132812"/>
     <use xlink:href="#ArialMT-64" x="233.349609"/>
     <use xlink:href="#ArialMT-73" x="288.964844"/>
     <use xlink:href="#ArialMT-6f" x="338.964844"/>
     <use xlink:href="#ArialMT-75" x="394.580078"/>
     <use xlink:href="#ArialMT-72" x="450.195312"/>
     <use xlink:href="#ArialMT-63" x="483.496094"/>
     <use xlink:href="#ArialMT-65" x="533.496094"/>
     <use xlink:href="#ArialMT-20" x="589.111328"/>
     <use xlink:href="#ArialMT-69" x="616.894531"/>
     <use xlink:href="#ArialMT-6e" x="639.111328"/>
     <use xlink:href="#ArialMT-74" x="694.726562"/>
     <use xlink:href="#ArialMT-65" x="722.509766"/>
     <use xlink:href="#ArialMT-72" x="778.125"/>
     <use xlink:href="#ArialMT-65" x="811.425781"/>
     <use xlink:href="#ArialMT-73" x="867.041016"/>
     <use xlink:href="#ArialMT-74" x="917.041016"/>
    </g>
   </g>
  </g>
  <g id="axes_2">
   <g id="patch_10">
    <path d="M 177.289125 145.092 
L 303.58625 145.092 
L 303.58625 30.6 
L 177.289125 30.6 
z
" style="fill: #ffffff"/>
   </g>
   <g id="matplotlib.axis_3">
    <g id="xtick_7">
     <g id="line2d_13">
      <path d="M 183.029903 145.092 
L 183.029903 30.6 
" clip-path="url(#p148160a1b8)" style="fill: none; stroke: #cccccc; stroke-width: 0.8; stroke-linecap: round"/>
     </g>
     <g id="text_15">
      <!-- 0 -->
      <g style="fill: #262626" transform="translate(180.583091 159.690875) scale(0.088 -0.088)">
       <use xlink:href="#ArialMT-30"/>
      </g>
     </g>
    </g>
    <g id="xtick_8">
     <g id="line2d_14">
      <path d="M 205.993017 145.092 
L 205.993017 30.6 
" clip-path="url(#p148160a1b8)" style="fill: none; stroke: #cccccc; stroke-width: 0.8; stroke-linecap: round"/>
     </g>
     <g id="text_16">
      <!-- 1 -->
      <g style="fill: #262626" transform="translate(203.546205 159.690875) scale(0.088 -0.088)">
       <use xlink:href="#ArialMT-31"/>
      </g>
     </g>
    </g>
    <g id="xtick_9">
     <g id="line2d_15">
      <path d="M 228.956131 145.092 
L 228.956131 30.6 
" clip-path="url(#p148160a1b8)" style="fill: none; stroke: #cccccc; stroke-width: 0.8; stroke-linecap: round"/>
     </g>
     <g id="text_17">
      <!-- 2 -->
      <g style="fill: #262626" transform="translate(226.509318 159.690875) scale(0.088 -0.088)">
       <use xlink:href="#ArialMT-32"/>
      </g>
     </g>
    </g>
    <g id="xtick_10">
     <g id="line2d_16">
      <path d="M 251.919244 145.092 
L 251.919244 30.6 
" clip-path="url(#p148160a1b8)" style="fill: none; stroke: #cccccc; stroke-width: 0.8; stroke-linecap: round"/>
     </g>
     <g id="text_18">
      <!-- 3 -->
      <g style="fill: #262626" transform="translate(249.472432 159.690875) scale(0.088 -0.088)">
       <use xlink:href="#ArialMT-33"/>
      </g>
     </g>
    </g>
    <g id="xtick_11">
     <g id="line2d_17">
      <path d="M 274.882358 145.092 
L 274.882358 30.6 
" clip-path="url(#p148160a1b8)" style="fill: none; stroke: #cccccc; stroke-width: 0.8; stroke-linecap: round"/>
     </g>
     <g id="text_19">
      <!-- 4 -->
      <g style="fill: #262626" transform="translate(272.435545 159.690875) scale(0.088 -0.088)">
       <use xlink:href="#ArialMT-34"/>
      </g>
     </g>
    </g>
    <g id="xtick_12">
     <g id="line2d_18">
      <path d="M 297.845472 145.092 
L 297.845472 30.6 
" clip-path="url(#p148160a1b8)" style="fill: none; stroke: #cccccc; stroke-width: 0.8; stroke-linecap: round"/>
     </g>
     <g id="text_20">
      <!-- 5 -->
      <g style="fill: #262626" transform="translate(295.398659 159.690875) scale(0.088 -0.088)">
       <use xlink:href="#ArialMT-35"/>
      </g>
     </g>
    </g>
    <g id="text_21">
     <!-- score -->
     <g style="fill: #262626" transform="translate(228.700938 172.311375) scale(0.096 -0.096)">
      <use xlink:href="#ArialMT-73"/>
      <use xlink:href="#ArialMT-63" x="50"/>
      <use xlink:href="#ArialMT-6f" x="100"/>
      <use xlink:href="#ArialMT-72" x="155.615234"/>
      <use xlink:href="#ArialMT-65" x="188.916016"/>
     </g>
    </g>
   </g>
   <g id="matplotlib.axis_4">
    <g id="ytick_6">
     <g id="line2d_19">
      <path d="M 177.289125 145.092 
L 303.58625 145.092 
" clip-path="url(#p148160a1b8)" style="fill: none; stroke: #cccccc; stroke-width: 0.8; stroke-linecap: round"/>
     </g>
    </g>
    <g id="ytick_7">
     <g id="line2d_20">
      <path d="M 177.289125 117.29749 
L 303.58625 117.29749 
" clip-path="url(#p148160a1b8)" style="fill: none; stroke: #cccccc; stroke-width: 0.8; stroke-linecap: round"/>
     </g>
    </g>
    <g id="ytick_8">
     <g id="line2d_21">
      <path d="M 177.289125 89.50298 
L 303.58625 89.50298 
" clip-path="url(#p148160a1b8)" style="fill: none; stroke: #cccccc; stroke-width: 0.8; stroke-linecap: round"/>
     </g>
    </g>
    <g id="ytick_9">
     <g id="line2d_22">
      <path d="M 177.289125 61.708471 
L 303.58625 61.708471 
" clip-path="url(#p148160a1b8)" style="fill: none; stroke: #cccccc; stroke-width: 0.8; stroke-linecap: round"/>
     </g>
    </g>
    <g id="ytick_10">
     <g id="line2d_23">
      <path d="M 177.289125 33.913961 
L 303.58625 33.913961 
" clip-path="url(#p148160a1b8)" style="fill: none; stroke: #cccccc; stroke-width: 0.8; stroke-linecap: round"/>
     </g>
    </g>
   </g>
   <g id="patch_11">
    <path d="M 183.029903 145.092 
L 205.993017 145.092 
L 205.993017 141.884941 
L 183.029903 141.884941 
z
" clip-path="url(#p148160a1b8)" style="fill: #008000; fill-opacity: 0.5; stroke: #ffffff; stroke-width: 0.8; stroke-linejoin: miter"/>
   </g>
   <g id="patch_12">
    <path d="M 205.993017 145.092 
L 228.956131 145.092 
L 228.956131 137.608863 
L 205.993017 137.608863 
z
" clip-path="url(#p148160a1b8)" style="fill: #008000; fill-opacity: 0.5; stroke: #ffffff; stroke-width: 0.8; stroke-linejoin: miter"/>
   </g>
   <g id="patch_13">
    <path d="M 228.956131 145.092 
L 251.919244 145.092 
L 251.919244 126.918667 
L 228.956131 126.918667 
z
" clip-path="url(#p148160a1b8)" style="fill: #008000; fill-opacity: 0.5; stroke: #ffffff; stroke-width: 0.8; stroke-linejoin: miter"/>
   </g>
   <g id="patch_14">
    <path d="M 251.919244 145.092 
L 274.882358 145.092 
L 274.882358 106.607294 
L 251.919244 106.607294 
z
" clip-path="url(#p148160a1b8)" style="fill: #008000; fill-opacity: 0.5; stroke: #ffffff; stroke-width: 0.8; stroke-linejoin: miter"/>
   </g>
   <g id="patch_15">
    <path d="M 274.882358 145.092 
L 297.845472 145.092 
L 297.845472 73.467686 
L 274.882358 73.467686 
z
" clip-path="url(#p148160a1b8)" style="fill: #008000; fill-opacity: 0.5; stroke: #ffffff; stroke-width: 0.8; stroke-linejoin: miter"/>
   </g>
   <g id="line2d_24">
    <path d="M 183.029903 141.716145 
L 190.530418 140.603408 
L 194.569156 139.78604 
L 199.76182 138.493337 
L 208.993223 135.965675 
L 212.454999 134.764877 
L 215.339812 133.503397 
L 218.224625 131.985541 
L 222.840327 129.222582 
L 228.609953 125.819402 
L 233.802617 122.761331 
L 236.110468 121.148301 
L 238.418318 119.268115 
L 241.303131 116.561743 
L 246.495795 111.508535 
L 248.226683 110.114824 
L 249.957571 109.011189 
L 251.688459 108.247015 
L 253.419347 107.831991 
L 255.150235 107.73397 
L 256.881123 107.884381 
L 259.765936 108.430685 
L 262.65075 108.96306 
L 264.9586 109.171648 
L 267.266451 109.147267 
L 275.343928 108.743665 
L 277.651779 108.982849 
L 286.306219 110.198992 
L 289.191032 110.156909 
L 292.652808 110.104611 
L 294.383696 110.310366 
L 295.537621 110.608453 
L 296.691546 111.06865 
L 297.845472 111.713065 
L 297.845472 111.713065 
" clip-path="url(#p148160a1b8)" style="fill: none; stroke: #008000; stroke-width: 1.2; stroke-linecap: round"/>
   </g>
   <g id="patch_16">
    <path d="M 177.289125 145.092 
L 177.289125 30.6 
" style="fill: none; stroke: #cccccc; stroke-linejoin: miter; stroke-linecap: square"/>
   </g>
   <g id="patch_17">
    <path d="M 177.289125 145.092 
L 303.58625 145.092 
" style="fill: none; stroke: #cccccc; stroke-linejoin: miter; stroke-linecap: square"/>
   </g>
   <g id="text_22">
    <!-- Willingness to participate -->
    <g style="fill: #262626" transform="translate(187.349688 24.6) scale(0.096 -0.096)">
     <defs>
      <path id="ArialMT-57" d="M 1294 0 
L 78 4581 
L 700 4581 
L 1397 1578 
Q 1509 1106 1591 641 
Q 1766 1375 1797 1488 
L 2669 4581 
L 3400 4581 
L 4056 2263 
Q 4303 1400 4413 641 
Q 4500 1075 4641 1638 
L 5359 4581 
L 5969 4581 
L 4713 0 
L 4128 0 
L 3163 3491 
Q 3041 3928 3019 4028 
Q 2947 3713 2884 3491 
L 1913 0 
L 1294 0 
z
" transform="scale(0.015625)"/>
      <path id="ArialMT-6c" d="M 409 0 
L 409 4581 
L 972 4581 
L 972 0 
L 409 0 
z
" transform="scale(0.015625)"/>
      <path id="ArialMT-67" d="M 319 -275 
L 866 -356 
Q 900 -609 1056 -725 
Q 1266 -881 1628 -881 
Q 2019 -881 2231 -725 
Q 2444 -569 2519 -288 
Q 2563 -116 2559 434 
Q 2191 0 1641 0 
Q 956 0 581 494 
Q 206 988 206 1678 
Q 206 2153 378 2554 
Q 550 2956 876 3175 
Q 1203 3394 1644 3394 
Q 2231 3394 2613 2919 
L 2613 3319 
L 3131 3319 
L 3131 450 
Q 3131 -325 2973 -648 
Q 2816 -972 2473 -1159 
Q 2131 -1347 1631 -1347 
Q 1038 -1347 672 -1080 
Q 306 -813 319 -275 
z
M 784 1719 
Q 784 1066 1043 766 
Q 1303 466 1694 466 
Q 2081 466 2343 764 
Q 2606 1063 2606 1700 
Q 2606 2309 2336 2618 
Q 2066 2928 1684 2928 
Q 1309 2928 1046 2623 
Q 784 2319 784 1719 
z
" transform="scale(0.015625)"/>
      <path id="ArialMT-70" d="M 422 -1272 
L 422 3319 
L 934 3319 
L 934 2888 
Q 1116 3141 1344 3267 
Q 1572 3394 1897 3394 
Q 2322 3394 2647 3175 
Q 2972 2956 3137 2557 
Q 3303 2159 3303 1684 
Q 3303 1175 3120 767 
Q 2938 359 2589 142 
Q 2241 -75 1856 -75 
Q 1575 -75 1351 44 
Q 1128 163 984 344 
L 984 -1272 
L 422 -1272 
z
M 931 1641 
Q 931 1000 1190 694 
Q 1450 388 1819 388 
Q 2194 388 2461 705 
Q 2728 1022 2728 1688 
Q 2728 2322 2467 2637 
Q 2206 2953 1844 2953 
Q 1484 2953 1207 2617 
Q 931 2281 931 1641 
z
" transform="scale(0.015625)"/>
      <path id="ArialMT-61" d="M 2588 409 
Q 2275 144 1986 34 
Q 1697 -75 1366 -75 
Q 819 -75 525 192 
Q 231 459 231 875 
Q 231 1119 342 1320 
Q 453 1522 633 1644 
Q 813 1766 1038 1828 
Q 1203 1872 1538 1913 
Q 2219 1994 2541 2106 
Q 2544 2222 2544 2253 
Q 2544 2597 2384 2738 
Q 2169 2928 1744 2928 
Q 1347 2928 1158 2789 
Q 969 2650 878 2297 
L 328 2372 
Q 403 2725 575 2942 
Q 747 3159 1072 3276 
Q 1397 3394 1825 3394 
Q 2250 3394 2515 3294 
Q 2781 3194 2906 3042 
Q 3031 2891 3081 2659 
Q 3109 2516 3109 2141 
L 3109 1391 
Q 3109 606 3145 398 
Q 3181 191 3288 0 
L 2700 0 
Q 2613 175 2588 409 
z
M 2541 1666 
Q 2234 1541 1622 1453 
Q 1275 1403 1131 1340 
Q 988 1278 909 1158 
Q 831 1038 831 891 
Q 831 666 1001 516 
Q 1172 366 1500 366 
Q 1825 366 2078 508 
Q 2331 650 2450 897 
Q 2541 1088 2541 1459 
L 2541 1666 
z
" transform="scale(0.015625)"/>
     </defs>
     <use xlink:href="#ArialMT-57"/>
     <use xlink:href="#ArialMT-69" x="94.384766"/>
     <use xlink:href="#ArialMT-6c" x="116.601562"/>
     <use xlink:href="#ArialMT-6c" x="138.818359"/>
     <use xlink:href="#ArialMT-69" x="161.035156"/>
     <use xlink:href="#ArialMT-6e" x="183.251953"/>
     <use xlink:href="#ArialMT-67" x="238.867188"/>
     <use xlink:href="#ArialMT-6e" x="294.482422"/>
     <use xlink:href="#ArialMT-65" x="350.097656"/>
     <use xlink:href="#ArialMT-73" x="405.712891"/>
     <use xlink:href="#ArialMT-73" x="455.712891"/>
     <use xlink:href="#ArialMT-20" x="505.712891"/>
     <use xlink:href="#ArialMT-74" x="533.496094"/>
     <use xlink:href="#ArialMT-6f" x="561.279297"/>
     <use xlink:href="#ArialMT-20" x="616.894531"/>
     <use xlink:href="#ArialMT-70" x="644.677734"/>
     <use xlink:href="#ArialMT-61" x="700.292969"/>
     <use xlink:href="#ArialMT-72" x="755.908203"/>
     <use xlink:href="#ArialMT-74" x="789.208984"/>
     <use xlink:href="#ArialMT-69" x="816.992188"/>
     <use xlink:href="#ArialMT-63" x="839.208984"/>
     <use xlink:href="#ArialMT-69" x="889.208984"/>
     <use xlink:href="#ArialMT-70" x="911.425781"/>
     <use xlink:href="#ArialMT-61" x="967.041016"/>
     <use xlink:href="#ArialMT-74" x="1022.65625"/>
     <use xlink:href="#ArialMT-65" x="1050.439453"/>
    </g>
   </g>
  </g>
  <g id="axes_3">
   <g id="patch_18">
    <path d="M 313.95425 145.092 
L 440.251375 145.092 
L 440.251375 30.6 
L 313.95425 30.6 
z
" style="fill: #ffffff"/>
   </g>
   <g id="matplotlib.axis_5">
    <g id="xtick_13">
     <g id="line2d_25">
      <path d="M 319.695028 145.092 
L 319.695028 30.6 
" clip-path="url(#pf8b50dde03)" style="fill: none; stroke: #cccccc; stroke-width: 0.8; stroke-linecap: round"/>
     </g>
     <g id="text_23">
      <!-- 0 -->
      <g style="fill: #262626" transform="translate(317.248216 159.690875) scale(0.088 -0.088)">
       <use xlink:href="#ArialMT-30"/>
      </g>
     </g>
    </g>
    <g id="xtick_14">
     <g id="line2d_26">
      <path d="M 342.658142 145.092 
L 342.658142 30.6 
" clip-path="url(#pf8b50dde03)" style="fill: none; stroke: #cccccc; stroke-width: 0.8; stroke-linecap: round"/>
     </g>
     <g id="text_24">
      <!-- 1 -->
      <g style="fill: #262626" transform="translate(340.21133 159.690875) scale(0.088 -0.088)">
       <use xlink:href="#ArialMT-31"/>
      </g>
     </g>
    </g>
    <g id="xtick_15">
     <g id="line2d_27">
      <path d="M 365.621256 145.092 
L 365.621256 30.6 
" clip-path="url(#pf8b50dde03)" style="fill: none; stroke: #cccccc; stroke-width: 0.8; stroke-linecap: round"/>
     </g>
     <g id="text_25">
      <!-- 2 -->
      <g style="fill: #262626" transform="translate(363.174443 159.690875) scale(0.088 -0.088)">
       <use xlink:href="#ArialMT-32"/>
      </g>
     </g>
    </g>
    <g id="xtick_16">
     <g id="line2d_28">
      <path d="M 388.584369 145.092 
L 388.584369 30.6 
" clip-path="url(#pf8b50dde03)" style="fill: none; stroke: #cccccc; stroke-width: 0.8; stroke-linecap: round"/>
     </g>
     <g id="text_26">
      <!-- 3 -->
      <g style="fill: #262626" transform="translate(386.137557 159.690875) scale(0.088 -0.088)">
       <use xlink:href="#ArialMT-33"/>
      </g>
     </g>
    </g>
    <g id="xtick_17">
     <g id="line2d_29">
      <path d="M 411.547483 145.092 
L 411.547483 30.6 
" clip-path="url(#pf8b50dde03)" style="fill: none; stroke: #cccccc; stroke-width: 0.8; stroke-linecap: round"/>
     </g>
     <g id="text_27">
      <!-- 4 -->
      <g style="fill: #262626" transform="translate(409.10067 159.690875) scale(0.088 -0.088)">
       <use xlink:href="#ArialMT-34"/>
      </g>
     </g>
    </g>
    <g id="xtick_18">
     <g id="line2d_30">
      <path d="M 434.510597 145.092 
L 434.510597 30.6 
" clip-path="url(#pf8b50dde03)" style="fill: none; stroke: #cccccc; stroke-width: 0.8; stroke-linecap: round"/>
     </g>
     <g id="text_28">
      <!-- 5 -->
      <g style="fill: #262626" transform="translate(432.063784 159.690875) scale(0.088 -0.088)">
       <use xlink:href="#ArialMT-35"/>
      </g>
     </g>
    </g>
    <g id="text_29">
     <!-- score -->
     <g style="fill: #262626" transform="translate(365.366062 172.311375) scale(0.096 -0.096)">
      <use xlink:href="#ArialMT-73"/>
      <use xlink:href="#ArialMT-63" x="50"/>
      <use xlink:href="#ArialMT-6f" x="100"/>
      <use xlink:href="#ArialMT-72" x="155.615234"/>
      <use xlink:href="#ArialMT-65" x="188.916016"/>
     </g>
    </g>
   </g>
   <g id="matplotlib.axis_6">
    <g id="ytick_11">
     <g id="line2d_31">
      <path d="M 313.95425 145.092 
L 440.251375 145.092 
" clip-path="url(#pf8b50dde03)" style="fill: none; stroke: #cccccc; stroke-width: 0.8; stroke-linecap: round"/>
     </g>
    </g>
    <g id="ytick_12">
     <g id="line2d_32">
      <path d="M 313.95425 117.29749 
L 440.251375 117.29749 
" clip-path="url(#pf8b50dde03)" style="fill: none; stroke: #cccccc; stroke-width: 0.8; stroke-linecap: round"/>
     </g>
    </g>
    <g id="ytick_13">
     <g id="line2d_33">
      <path d="M 313.95425 89.50298 
L 440.251375 89.50298 
" clip-path="url(#pf8b50dde03)" style="fill: none; stroke: #cccccc; stroke-width: 0.8; stroke-linecap: round"/>
     </g>
    </g>
    <g id="ytick_14">
     <g id="line2d_34">
      <path d="M 313.95425 61.708471 
L 440.251375 61.708471 
" clip-path="url(#pf8b50dde03)" style="fill: none; stroke: #cccccc; stroke-width: 0.8; stroke-linecap: round"/>
     </g>
    </g>
    <g id="ytick_15">
     <g id="line2d_35">
      <path d="M 313.95425 33.913961 
L 440.251375 33.913961 
" clip-path="url(#pf8b50dde03)" style="fill: none; stroke: #cccccc; stroke-width: 0.8; stroke-linecap: round"/>
     </g>
    </g>
   </g>
   <g id="patch_19">
    <path d="M 319.695028 145.092 
L 342.658142 145.092 
L 342.658142 105.538275 
L 319.695028 105.538275 
z
" clip-path="url(#pf8b50dde03)" style="fill: #008000; fill-opacity: 0.5; stroke: #ffffff; stroke-width: 0.8; stroke-linejoin: miter"/>
   </g>
   <g id="patch_20">
    <path d="M 342.658142 145.092 
L 365.621256 145.092 
L 365.621256 134.401804 
L 342.658142 134.401804 
z
" clip-path="url(#pf8b50dde03)" style="fill: #008000; fill-opacity: 0.5; stroke: #ffffff; stroke-width: 0.8; stroke-linejoin: miter"/>
   </g>
   <g id="patch_21">
    <path d="M 365.621256 145.092 
L 388.584369 145.092 
L 388.584369 125.849647 
L 365.621256 125.849647 
z
" clip-path="url(#pf8b50dde03)" style="fill: #008000; fill-opacity: 0.5; stroke: #ffffff; stroke-width: 0.8; stroke-linejoin: miter"/>
   </g>
   <g id="patch_22">
    <path d="M 388.584369 145.092 
L 411.547483 145.092 
L 411.547483 119.435529 
L 388.584369 119.435529 
z
" clip-path="url(#pf8b50dde03)" style="fill: #008000; fill-opacity: 0.5; stroke: #ffffff; stroke-width: 0.8; stroke-linejoin: miter"/>
   </g>
   <g id="patch_23">
    <path d="M 411.547483 145.092 
L 434.510597 145.092 
L 434.510597 101.262196 
L 411.547483 101.262196 
z
" clip-path="url(#pf8b50dde03)" style="fill: #008000; fill-opacity: 0.5; stroke: #ffffff; stroke-width: 0.8; stroke-linejoin: miter"/>
   </g>
   <g id="line2d_36">
    <path d="M 319.695028 120.127353 
L 321.425916 119.841883 
L 323.156804 119.772556 
L 324.887692 119.907632 
L 326.61858 120.228209 
L 328.926431 120.900357 
L 331.811244 122.031601 
L 342.773535 126.728218 
L 345.658348 127.520553 
L 347.966198 127.93758 
L 350.274049 128.159622 
L 353.158862 128.180024 
L 356.043676 127.952241 
L 359.505452 127.423919 
L 364.121153 126.440976 
L 378.545219 123.147335 
L 382.583958 122.51706 
L 386.622696 122.113573 
L 390.661435 121.951853 
L 394.700173 122.009869 
L 399.892837 122.314113 
L 421.240456 124.016882 
L 425.279194 124.587663 
L 428.74097 125.327707 
L 431.625783 126.173656 
L 434.510597 127.252765 
L 434.510597 127.252765 
" clip-path="url(#pf8b50dde03)" style="fill: none; stroke: #008000; stroke-width: 1.2; stroke-linecap: round"/>
   </g>
   <g id="patch_24">
    <path d="M 313.95425 145.092 
L 313.95425 30.6 
" style="fill: none; stroke: #cccccc; stroke-linejoin: miter; stroke-linecap: square"/>
   </g>
   <g id="patch_25">
    <path d="M 313.95425 145.092 
L 440.251375 145.092 
" style="fill: none; stroke: #cccccc; stroke-linejoin: miter; stroke-linecap: square"/>
   </g>
   <g id="text_30">
    <!-- Leaderboard -->
    <g style="fill: #262626" transform="translate(349.883063 24.6) scale(0.096 -0.096)">
     <defs>
      <path id="ArialMT-4c" d="M 469 0 
L 469 4581 
L 1075 4581 
L 1075 541 
L 3331 541 
L 3331 0 
L 469 0 
z
" transform="scale(0.015625)"/>
      <path id="ArialMT-62" d="M 941 0 
L 419 0 
L 419 4581 
L 981 4581 
L 981 2947 
Q 1338 3394 1891 3394 
Q 2197 3394 2470 3270 
Q 2744 3147 2920 2923 
Q 3097 2700 3197 2384 
Q 3297 2069 3297 1709 
Q 3297 856 2875 390 
Q 2453 -75 1863 -75 
Q 1275 -75 941 416 
L 941 0 
z
M 934 1684 
Q 934 1088 1097 822 
Q 1363 388 1816 388 
Q 2184 388 2453 708 
Q 2722 1028 2722 1663 
Q 2722 2313 2464 2622 
Q 2206 2931 1841 2931 
Q 1472 2931 1203 2611 
Q 934 2291 934 1684 
z
" transform="scale(0.015625)"/>
     </defs>
     <use xlink:href="#ArialMT-4c"/>
     <use xlink:href="#ArialMT-65" x="55.615234"/>
     <use xlink:href="#ArialMT-61" x="111.230469"/>
     <use xlink:href="#ArialMT-64" x="166.845703"/>
     <use xlink:href="#ArialMT-65" x="222.460938"/>
     <use xlink:href="#ArialMT-72" x="278.076172"/>
     <use xlink:href="#ArialMT-62" x="311.376953"/>
     <use xlink:href="#ArialMT-6f" x="366.992188"/>
     <use xlink:href="#ArialMT-61" x="422.607422"/>
     <use xlink:href="#ArialMT-72" x="478.222656"/>
     <use xlink:href="#ArialMT-64" x="511.523438"/>
    </g>
   </g>
  </g>
  <g id="axes_4">
   <g id="patch_26">
    <path d="M 450.619375 145.092 
L 576.9165 145.092 
L 576.9165 30.6 
L 450.619375 30.6 
z
" style="fill: #ffffff"/>
   </g>
   <g id="matplotlib.axis_7">
    <g id="xtick_19">
     <g id="line2d_37">
      <path d="M 456.360153 145.092 
L 456.360153 30.6 
" clip-path="url(#p0e517b7298)" style="fill: none; stroke: #cccccc; stroke-width: 0.8; stroke-linecap: round"/>
     </g>
     <g id="text_31">
      <!-- 0 -->
      <g style="fill: #262626" transform="translate(453.913341 159.690875) scale(0.088 -0.088)">
       <use xlink:href="#ArialMT-30"/>
      </g>
     </g>
    </g>
    <g id="xtick_20">
     <g id="line2d_38">
      <path d="M 479.323267 145.092 
L 479.323267 30.6 
" clip-path="url(#p0e517b7298)" style="fill: none; stroke: #cccccc; stroke-width: 0.8; stroke-linecap: round"/>
     </g>
     <g id="text_32">
      <!-- 1 -->
      <g style="fill: #262626" transform="translate(476.876455 159.690875) scale(0.088 -0.088)">
       <use xlink:href="#ArialMT-31"/>
      </g>
     </g>
    </g>
    <g id="xtick_21">
     <g id="line2d_39">
      <path d="M 502.286381 145.092 
L 502.286381 30.6 
" clip-path="url(#p0e517b7298)" style="fill: none; stroke: #cccccc; stroke-width: 0.8; stroke-linecap: round"/>
     </g>
     <g id="text_33">
      <!-- 2 -->
      <g style="fill: #262626" transform="translate(499.839568 159.690875) scale(0.088 -0.088)">
       <use xlink:href="#ArialMT-32"/>
      </g>
     </g>
    </g>
    <g id="xtick_22">
     <g id="line2d_40">
      <path d="M 525.249494 145.092 
L 525.249494 30.6 
" clip-path="url(#p0e517b7298)" style="fill: none; stroke: #cccccc; stroke-width: 0.8; stroke-linecap: round"/>
     </g>
     <g id="text_34">
      <!-- 3 -->
      <g style="fill: #262626" transform="translate(522.802682 159.690875) scale(0.088 -0.088)">
       <use xlink:href="#ArialMT-33"/>
      </g>
     </g>
    </g>
    <g id="xtick_23">
     <g id="line2d_41">
      <path d="M 548.212608 145.092 
L 548.212608 30.6 
" clip-path="url(#p0e517b7298)" style="fill: none; stroke: #cccccc; stroke-width: 0.8; stroke-linecap: round"/>
     </g>
     <g id="text_35">
      <!-- 4 -->
      <g style="fill: #262626" transform="translate(545.765795 159.690875) scale(0.088 -0.088)">
       <use xlink:href="#ArialMT-34"/>
      </g>
     </g>
    </g>
    <g id="xtick_24">
     <g id="line2d_42">
      <path d="M 571.175722 145.092 
L 571.175722 30.6 
" clip-path="url(#p0e517b7298)" style="fill: none; stroke: #cccccc; stroke-width: 0.8; stroke-linecap: round"/>
     </g>
     <g id="text_36">
      <!-- 5 -->
      <g style="fill: #262626" transform="translate(568.728909 159.690875) scale(0.088 -0.088)">
       <use xlink:href="#ArialMT-35"/>
      </g>
     </g>
    </g>
    <g id="text_37">
     <!-- score -->
     <g style="fill: #262626" transform="translate(502.031187 172.311375) scale(0.096 -0.096)">
      <use xlink:href="#ArialMT-73"/>
      <use xlink:href="#ArialMT-63" x="50"/>
      <use xlink:href="#ArialMT-6f" x="100"/>
      <use xlink:href="#ArialMT-72" x="155.615234"/>
      <use xlink:href="#ArialMT-65" x="188.916016"/>
     </g>
    </g>
   </g>
   <g id="matplotlib.axis_8">
    <g id="ytick_16">
     <g id="line2d_43">
      <path d="M 450.619375 145.092 
L 576.9165 145.092 
" clip-path="url(#p0e517b7298)" style="fill: none; stroke: #cccccc; stroke-width: 0.8; stroke-linecap: round"/>
     </g>
    </g>
    <g id="ytick_17">
     <g id="line2d_44">
      <path d="M 450.619375 117.29749 
L 576.9165 117.29749 
" clip-path="url(#p0e517b7298)" style="fill: none; stroke: #cccccc; stroke-width: 0.8; stroke-linecap: round"/>
     </g>
    </g>
    <g id="ytick_18">
     <g id="line2d_45">
      <path d="M 450.619375 89.50298 
L 576.9165 89.50298 
" clip-path="url(#p0e517b7298)" style="fill: none; stroke: #cccccc; stroke-width: 0.8; stroke-linecap: round"/>
     </g>
    </g>
    <g id="ytick_19">
     <g id="line2d_46">
      <path d="M 450.619375 61.708471 
L 576.9165 61.708471 
" clip-path="url(#p0e517b7298)" style="fill: none; stroke: #cccccc; stroke-width: 0.8; stroke-linecap: round"/>
     </g>
    </g>
    <g id="ytick_20">
     <g id="line2d_47">
      <path d="M 450.619375 33.913961 
L 576.9165 33.913961 
" clip-path="url(#p0e517b7298)" style="fill: none; stroke: #cccccc; stroke-width: 0.8; stroke-linecap: round"/>
     </g>
    </g>
   </g>
   <g id="patch_27">
    <path d="M 456.360153 145.092 
L 479.323267 145.092 
L 479.323267 118.36651 
L 456.360153 118.36651 
z
" clip-path="url(#p0e517b7298)" style="fill: #008000; fill-opacity: 0.5; stroke: #ffffff; stroke-width: 0.8; stroke-linejoin: miter"/>
   </g>
   <g id="patch_28">
    <path d="M 479.323267 145.092 
L 502.286381 145.092 
L 502.286381 124.780627 
L 479.323267 124.780627 
z
" clip-path="url(#p0e517b7298)" style="fill: #008000; fill-opacity: 0.5; stroke: #ffffff; stroke-width: 0.8; stroke-linejoin: miter"/>
   </g>
   <g id="patch_29">
    <path d="M 502.286381 145.092 
L 525.249494 145.092 
L 525.249494 116.228471 
L 502.286381 116.228471 
z
" clip-path="url(#p0e517b7298)" style="fill: #008000; fill-opacity: 0.5; stroke: #ffffff; stroke-width: 0.8; stroke-linejoin: miter"/>
   </g>
   <g id="patch_30">
    <path d="M 525.249494 145.092 
L 548.212608 145.092 
L 548.212608 113.021412 
L 525.249494 113.021412 
z
" clip-path="url(#p0e517b7298)" style="fill: #008000; fill-opacity: 0.5; stroke: #ffffff; stroke-width: 0.8; stroke-linejoin: miter"/>
   </g>
   <g id="patch_31">
    <path d="M 548.212608 145.092 
L 571.175722 145.092 
L 571.175722 114.090431 
L 548.212608 114.090431 
z
" clip-path="url(#p0e517b7298)" style="fill: #008000; fill-opacity: 0.5; stroke: #ffffff; stroke-width: 0.8; stroke-linejoin: miter"/>
   </g>
   <g id="line2d_48">
    <path d="M 456.360153 123.663746 
L 458.091041 123.022079 
L 460.398892 122.440479 
L 462.706743 122.132219 
L 465.591556 122.036767 
L 469.630294 122.199153 
L 475.399921 122.448351 
L 478.861697 122.385707 
L 482.323473 122.085433 
L 485.785249 121.527482 
L 489.247025 120.729067 
L 493.862726 119.407163 
L 500.786278 117.412092 
L 504.825016 116.504212 
L 508.863755 115.826901 
L 513.479456 115.281469 
L 517.518195 115.020396 
L 520.403008 115.026756 
L 523.287821 115.265226 
L 525.595672 115.65669 
L 527.903523 116.235954 
L 530.788336 117.204284 
L 534.250112 118.639605 
L 541.750626 122.120703 
L 548.097215 124.924327 
L 556.174693 128.229035 
L 564.829132 131.529023 
L 571.175722 133.973757 
L 571.175722 133.973757 
" clip-path="url(#p0e517b7298)" style="fill: none; stroke: #008000; stroke-width: 1.2; stroke-linecap: round"/>
   </g>
   <g id="patch_32">
    <path d="M 450.619375 145.092 
L 450.619375 30.6 
" style="fill: none; stroke: #cccccc; stroke-linejoin: miter; stroke-linecap: square"/>
   </g>
   <g id="patch_33">
    <path d="M 450.619375 145.092 
L 576.9165 145.092 
" style="fill: none; stroke: #cccccc; stroke-linejoin: miter; stroke-linecap: square"/>
   </g>
   <g id="text_38">
    <!-- Features unlocking -->
    <g style="fill: #262626" transform="translate(473.214688 24.6) scale(0.096 -0.096)">
     <defs>
      <path id="ArialMT-46" d="M 525 0 
L 525 4581 
L 3616 4581 
L 3616 4041 
L 1131 4041 
L 1131 2622 
L 3281 2622 
L 3281 2081 
L 1131 2081 
L 1131 0 
L 525 0 
z
" transform="scale(0.015625)"/>
      <path id="ArialMT-6b" d="M 425 0 
L 425 4581 
L 988 4581 
L 988 1969 
L 2319 3319 
L 3047 3319 
L 1778 2088 
L 3175 0 
L 2481 0 
L 1384 1697 
L 988 1316 
L 988 0 
L 425 0 
z
" transform="scale(0.015625)"/>
     </defs>
     <use xlink:href="#ArialMT-46"/>
     <use xlink:href="#ArialMT-65" x="61.083984"/>
     <use xlink:href="#ArialMT-61" x="116.699219"/>
     <use xlink:href="#ArialMT-74" x="172.314453"/>
     <use xlink:href="#ArialMT-75" x="200.097656"/>
     <use xlink:href="#ArialMT-72" x="255.712891"/>
     <use xlink:href="#ArialMT-65" x="289.013672"/>
     <use xlink:href="#ArialMT-73" x="344.628906"/>
     <use xlink:href="#ArialMT-20" x="394.628906"/>
     <use xlink:href="#ArialMT-75" x="422.412109"/>
     <use xlink:href="#ArialMT-6e" x="478.027344"/>
     <use xlink:href="#ArialMT-6c" x="533.642578"/>
     <use xlink:href="#ArialMT-6f" x="555.859375"/>
     <use xlink:href="#ArialMT-63" x="611.474609"/>
     <use xlink:href="#ArialMT-6b" x="661.474609"/>
     <use xlink:href="#ArialMT-69" x="711.474609"/>
     <use xlink:href="#ArialMT-6e" x="733.691406"/>
     <use xlink:href="#ArialMT-67" x="789.306641"/>
    </g>
   </g>
  </g>
  <g id="axes_5">
   <g id="patch_34">
    <path d="M 587.2845 145.092 
L 713.581625 145.092 
L 713.581625 30.6 
L 587.2845 30.6 
z
" style="fill: #ffffff"/>
   </g>
   <g id="matplotlib.axis_9">
    <g id="xtick_25">
     <g id="line2d_49">
      <path d="M 593.025278 145.092 
L 593.025278 30.6 
" clip-path="url(#pac82422a72)" style="fill: none; stroke: #cccccc; stroke-width: 0.8; stroke-linecap: round"/>
     </g>
     <g id="text_39">
      <!-- 0 -->
      <g style="fill: #262626" transform="translate(590.578466 159.690875) scale(0.088 -0.088)">
       <use xlink:href="#ArialMT-30"/>
      </g>
     </g>
    </g>
    <g id="xtick_26">
     <g id="line2d_50">
      <path d="M 615.988392 145.092 
L 615.988392 30.6 
" clip-path="url(#pac82422a72)" style="fill: none; stroke: #cccccc; stroke-width: 0.8; stroke-linecap: round"/>
     </g>
     <g id="text_40">
      <!-- 1 -->
      <g style="fill: #262626" transform="translate(613.54158 159.690875) scale(0.088 -0.088)">
       <use xlink:href="#ArialMT-31"/>
      </g>
     </g>
    </g>
    <g id="xtick_27">
     <g id="line2d_51">
      <path d="M 638.951506 145.092 
L 638.951506 30.6 
" clip-path="url(#pac82422a72)" style="fill: none; stroke: #cccccc; stroke-width: 0.8; stroke-linecap: round"/>
     </g>
     <g id="text_41">
      <!-- 2 -->
      <g style="fill: #262626" transform="translate(636.504693 159.690875) scale(0.088 -0.088)">
       <use xlink:href="#ArialMT-32"/>
      </g>
     </g>
    </g>
    <g id="xtick_28">
     <g id="line2d_52">
      <path d="M 661.914619 145.092 
L 661.914619 30.6 
" clip-path="url(#pac82422a72)" style="fill: none; stroke: #cccccc; stroke-width: 0.8; stroke-linecap: round"/>
     </g>
     <g id="text_42">
      <!-- 3 -->
      <g style="fill: #262626" transform="translate(659.467807 159.690875) scale(0.088 -0.088)">
       <use xlink:href="#ArialMT-33"/>
      </g>
     </g>
    </g>
    <g id="xtick_29">
     <g id="line2d_53">
      <path d="M 684.877733 145.092 
L 684.877733 30.6 
" clip-path="url(#pac82422a72)" style="fill: none; stroke: #cccccc; stroke-width: 0.8; stroke-linecap: round"/>
     </g>
     <g id="text_43">
      <!-- 4 -->
      <g style="fill: #262626" transform="translate(682.43092 159.690875) scale(0.088 -0.088)">
       <use xlink:href="#ArialMT-34"/>
      </g>
     </g>
    </g>
    <g id="xtick_30">
     <g id="line2d_54">
      <path d="M 707.840847 145.092 
L 707.840847 30.6 
" clip-path="url(#pac82422a72)" style="fill: none; stroke: #cccccc; stroke-width: 0.8; stroke-linecap: round"/>
     </g>
     <g id="text_44">
      <!-- 5 -->
      <g style="fill: #262626" transform="translate(705.394034 159.690875) scale(0.088 -0.088)">
       <use xlink:href="#ArialMT-35"/>
      </g>
     </g>
    </g>
    <g id="text_45">
     <!-- score -->
     <g style="fill: #262626" transform="translate(638.696312 172.311375) scale(0.096 -0.096)">
      <use xlink:href="#ArialMT-73"/>
      <use xlink:href="#ArialMT-63" x="50"/>
      <use xlink:href="#ArialMT-6f" x="100"/>
      <use xlink:href="#ArialMT-72" x="155.615234"/>
      <use xlink:href="#ArialMT-65" x="188.916016"/>
     </g>
    </g>
   </g>
   <g id="matplotlib.axis_10">
    <g id="ytick_21">
     <g id="line2d_55">
      <path d="M 587.2845 145.092 
L 713.581625 145.092 
" clip-path="url(#pac82422a72)" style="fill: none; stroke: #cccccc; stroke-width: 0.8; stroke-linecap: round"/>
     </g>
    </g>
    <g id="ytick_22">
     <g id="line2d_56">
      <path d="M 587.2845 117.29749 
L 713.581625 117.29749 
" clip-path="url(#pac82422a72)" style="fill: none; stroke: #cccccc; stroke-width: 0.8; stroke-linecap: round"/>
     </g>
    </g>
    <g id="ytick_23">
     <g id="line2d_57">
      <path d="M 587.2845 89.50298 
L 713.581625 89.50298 
" clip-path="url(#pac82422a72)" style="fill: none; stroke: #cccccc; stroke-width: 0.8; stroke-linecap: round"/>
     </g>
    </g>
    <g id="ytick_24">
     <g id="line2d_58">
      <path d="M 587.2845 61.708471 
L 713.581625 61.708471 
" clip-path="url(#pac82422a72)" style="fill: none; stroke: #cccccc; stroke-width: 0.8; stroke-linecap: round"/>
     </g>
    </g>
    <g id="ytick_25">
     <g id="line2d_59">
      <path d="M 587.2845 33.913961 
L 713.581625 33.913961 
" clip-path="url(#pac82422a72)" style="fill: none; stroke: #cccccc; stroke-width: 0.8; stroke-linecap: round"/>
     </g>
    </g>
   </g>
   <g id="patch_35">
    <path d="M 593.025278 145.092 
L 615.988392 145.092 
L 615.988392 108.745333 
L 593.025278 108.745333 
z
" clip-path="url(#pac82422a72)" style="fill: #008000; fill-opacity: 0.5; stroke: #ffffff; stroke-width: 0.8; stroke-linejoin: miter"/>
   </g>
   <g id="patch_36">
    <path d="M 615.988392 145.092 
L 638.951506 145.092 
L 638.951506 127.987686 
L 615.988392 127.987686 
z
" clip-path="url(#pac82422a72)" style="fill: #008000; fill-opacity: 0.5; stroke: #ffffff; stroke-width: 0.8; stroke-linejoin: miter"/>
   </g>
   <g id="patch_37">
    <path d="M 638.951506 145.092 
L 661.914619 145.092 
L 661.914619 121.573569 
L 638.951506 121.573569 
z
" clip-path="url(#pac82422a72)" style="fill: #008000; fill-opacity: 0.5; stroke: #ffffff; stroke-width: 0.8; stroke-linejoin: miter"/>
   </g>
   <g id="patch_38">
    <path d="M 661.914619 145.092 
L 684.877733 145.092 
L 684.877733 119.435529 
L 661.914619 119.435529 
z
" clip-path="url(#pac82422a72)" style="fill: #008000; fill-opacity: 0.5; stroke: #ffffff; stroke-width: 0.8; stroke-linejoin: miter"/>
   </g>
   <g id="patch_39">
    <path d="M 684.877733 145.092 
L 707.840847 145.092 
L 707.840847 108.745333 
L 684.877733 108.745333 
z
" clip-path="url(#pac82422a72)" style="fill: #008000; fill-opacity: 0.5; stroke: #ffffff; stroke-width: 0.8; stroke-linejoin: miter"/>
   </g>
   <g id="line2d_60">
    <path d="M 593.025278 119.147122 
L 594.756166 118.646417 
L 596.487054 118.379428 
L 598.217942 118.33172 
L 599.94883 118.480333 
L 602.256681 118.931885 
L 605.141494 119.786809 
L 615.526822 123.203695 
L 618.411635 123.768868 
L 621.296448 124.076884 
L 624.181262 124.137599 
L 627.066075 123.986039 
L 631.104814 123.516907 
L 649.567619 120.940543 
L 655.337245 120.489271 
L 660.529909 120.30708 
L 665.14561 120.37275 
L 669.761311 120.661649 
L 674.377013 121.162593 
L 678.992714 121.89078 
L 683.031452 122.757513 
L 687.070191 123.877469 
L 691.10893 125.253888 
L 695.724631 127.088686 
L 701.494257 129.641792 
L 707.840847 132.647794 
L 707.840847 132.647794 
" clip-path="url(#pac82422a72)" style="fill: none; stroke: #008000; stroke-width: 1.2; stroke-linecap: round"/>
   </g>
   <g id="patch_40">
    <path d="M 587.2845 145.092 
L 587.2845 30.6 
" style="fill: none; stroke: #cccccc; stroke-linejoin: miter; stroke-linecap: square"/>
   </g>
   <g id="patch_41">
    <path d="M 587.2845 145.092 
L 713.581625 145.092 
" style="fill: none; stroke: #cccccc; stroke-linejoin: miter; stroke-linecap: square"/>
   </g>
   <g id="text_46">
    <!-- Customization unlocking -->
    <g style="fill: #262626" transform="translate(598.409312 24.6) scale(0.096 -0.096)">
     <defs>
      <path id="ArialMT-6d" d="M 422 0 
L 422 3319 
L 925 3319 
L 925 2853 
Q 1081 3097 1340 3245 
Q 1600 3394 1931 3394 
Q 2300 3394 2536 3241 
Q 2772 3088 2869 2813 
Q 3263 3394 3894 3394 
Q 4388 3394 4653 3120 
Q 4919 2847 4919 2278 
L 4919 0 
L 4359 0 
L 4359 2091 
Q 4359 2428 4304 2576 
Q 4250 2725 4106 2815 
Q 3963 2906 3769 2906 
Q 3419 2906 3187 2673 
Q 2956 2441 2956 1928 
L 2956 0 
L 2394 0 
L 2394 2156 
Q 2394 2531 2256 2718 
Q 2119 2906 1806 2906 
Q 1569 2906 1367 2781 
Q 1166 2656 1075 2415 
Q 984 2175 984 1722 
L 984 0 
L 422 0 
z
" transform="scale(0.015625)"/>
      <path id="ArialMT-7a" d="M 125 0 
L 125 456 
L 2238 2881 
Q 1878 2863 1603 2863 
L 250 2863 
L 250 3319 
L 2963 3319 
L 2963 2947 
L 1166 841 
L 819 456 
Q 1197 484 1528 484 
L 3063 484 
L 3063 0 
L 125 0 
z
" transform="scale(0.015625)"/>
     </defs>
     <use xlink:href="#ArialMT-43"/>
     <use xlink:href="#ArialMT-75" x="72.216797"/>
     <use xlink:href="#ArialMT-73" x="127.832031"/>
     <use xlink:href="#ArialMT-74" x="177.832031"/>
     <use xlink:href="#ArialMT-6f" x="205.615234"/>
     <use xlink:href="#ArialMT-6d" x="261.230469"/>
     <use xlink:href="#ArialMT-69" x="344.53125"/>
     <use xlink:href="#ArialMT-7a" x="366.748047"/>
     <use xlink:href="#ArialMT-61" x="416.748047"/>
     <use xlink:href="#ArialMT-74" x="472.363281"/>
     <use xlink:href="#ArialMT-69" x="500.146484"/>
     <use xlink:href="#ArialMT-6f" x="522.363281"/>
     <use xlink:href="#ArialMT-6e" x="577.978516"/>
     <use xlink:href="#ArialMT-20" x="633.59375"/>
     <use xlink:href="#ArialMT-75" x="661.376953"/>
     <use xlink:href="#ArialMT-6e" x="716.992188"/>
     <use xlink:href="#ArialMT-6c" x="772.607422"/>
     <use xlink:href="#ArialMT-6f" x="794.824219"/>
     <use xlink:href="#ArialMT-63" x="850.439453"/>
     <use xlink:href="#ArialMT-6b" x="900.439453"/>
     <use xlink:href="#ArialMT-69" x="950.439453"/>
     <use xlink:href="#ArialMT-6e" x="972.65625"/>
     <use xlink:href="#ArialMT-67" x="1028.271484"/>
    </g>
   </g>
  </g>
  <g id="axes_6">
   <g id="patch_42">
    <path d="M 723.949625 145.092 
L 850.24675 145.092 
L 850.24675 30.6 
L 723.949625 30.6 
z
" style="fill: #ffffff"/>
   </g>
   <g id="matplotlib.axis_11">
    <g id="xtick_31">
     <g id="line2d_61">
      <path d="M 729.690403 145.092 
L 729.690403 30.6 
" clip-path="url(#pea13f2a174)" style="fill: none; stroke: #cccccc; stroke-width: 0.8; stroke-linecap: round"/>
     </g>
     <g id="text_47">
      <!-- 0 -->
      <g style="fill: #262626" transform="translate(727.243591 159.690875) scale(0.088 -0.088)">
       <use xlink:href="#ArialMT-30"/>
      </g>
     </g>
    </g>
    <g id="xtick_32">
     <g id="line2d_62">
      <path d="M 752.653517 145.092 
L 752.653517 30.6 
" clip-path="url(#pea13f2a174)" style="fill: none; stroke: #cccccc; stroke-width: 0.8; stroke-linecap: round"/>
     </g>
     <g id="text_48">
      <!-- 1 -->
      <g style="fill: #262626" transform="translate(750.206705 159.690875) scale(0.088 -0.088)">
       <use xlink:href="#ArialMT-31"/>
      </g>
     </g>
    </g>
    <g id="xtick_33">
     <g id="line2d_63">
      <path d="M 775.616631 145.092 
L 775.616631 30.6 
" clip-path="url(#pea13f2a174)" style="fill: none; stroke: #cccccc; stroke-width: 0.8; stroke-linecap: round"/>
     </g>
     <g id="text_49">
      <!-- 2 -->
      <g style="fill: #262626" transform="translate(773.169818 159.690875) scale(0.088 -0.088)">
       <use xlink:href="#ArialMT-32"/>
      </g>
     </g>
    </g>
    <g id="xtick_34">
     <g id="line2d_64">
      <path d="M 798.579744 145.092 
L 798.579744 30.6 
" clip-path="url(#pea13f2a174)" style="fill: none; stroke: #cccccc; stroke-width: 0.8; stroke-linecap: round"/>
     </g>
     <g id="text_50">
      <!-- 3 -->
      <g style="fill: #262626" transform="translate(796.132932 159.690875) scale(0.088 -0.088)">
       <use xlink:href="#ArialMT-33"/>
      </g>
     </g>
    </g>
    <g id="xtick_35">
     <g id="line2d_65">
      <path d="M 821.542858 145.092 
L 821.542858 30.6 
" clip-path="url(#pea13f2a174)" style="fill: none; stroke: #cccccc; stroke-width: 0.8; stroke-linecap: round"/>
     </g>
     <g id="text_51">
      <!-- 4 -->
      <g style="fill: #262626" transform="translate(819.096045 159.690875) scale(0.088 -0.088)">
       <use xlink:href="#ArialMT-34"/>
      </g>
     </g>
    </g>
    <g id="xtick_36">
     <g id="line2d_66">
      <path d="M 844.505972 145.092 
L 844.505972 30.6 
" clip-path="url(#pea13f2a174)" style="fill: none; stroke: #cccccc; stroke-width: 0.8; stroke-linecap: round"/>
     </g>
     <g id="text_52">
      <!-- 5 -->
      <g style="fill: #262626" transform="translate(842.059159 159.690875) scale(0.088 -0.088)">
       <use xlink:href="#ArialMT-35"/>
      </g>
     </g>
    </g>
    <g id="text_53">
     <!-- score -->
     <g style="fill: #262626" transform="translate(775.361437 172.311375) scale(0.096 -0.096)">
      <use xlink:href="#ArialMT-73"/>
      <use xlink:href="#ArialMT-63" x="50"/>
      <use xlink:href="#ArialMT-6f" x="100"/>
      <use xlink:href="#ArialMT-72" x="155.615234"/>
      <use xlink:href="#ArialMT-65" x="188.916016"/>
     </g>
    </g>
   </g>
   <g id="matplotlib.axis_12">
    <g id="ytick_26">
     <g id="line2d_67">
      <path d="M 723.949625 145.092 
L 850.24675 145.092 
" clip-path="url(#pea13f2a174)" style="fill: none; stroke: #cccccc; stroke-width: 0.8; stroke-linecap: round"/>
     </g>
    </g>
    <g id="ytick_27">
     <g id="line2d_68">
      <path d="M 723.949625 117.29749 
L 850.24675 117.29749 
" clip-path="url(#pea13f2a174)" style="fill: none; stroke: #cccccc; stroke-width: 0.8; stroke-linecap: round"/>
     </g>
    </g>
    <g id="ytick_28">
     <g id="line2d_69">
      <path d="M 723.949625 89.50298 
L 850.24675 89.50298 
" clip-path="url(#pea13f2a174)" style="fill: none; stroke: #cccccc; stroke-width: 0.8; stroke-linecap: round"/>
     </g>
    </g>
    <g id="ytick_29">
     <g id="line2d_70">
      <path d="M 723.949625 61.708471 
L 850.24675 61.708471 
" clip-path="url(#pea13f2a174)" style="fill: none; stroke: #cccccc; stroke-width: 0.8; stroke-linecap: round"/>
     </g>
    </g>
    <g id="ytick_30">
     <g id="line2d_71">
      <path d="M 723.949625 33.913961 
L 850.24675 33.913961 
" clip-path="url(#pea13f2a174)" style="fill: none; stroke: #cccccc; stroke-width: 0.8; stroke-linecap: round"/>
     </g>
    </g>
   </g>
   <g id="patch_43">
    <path d="M 729.690403 145.092 
L 752.653517 145.092 
L 752.653517 139.746902 
L 729.690403 139.746902 
z
" clip-path="url(#pea13f2a174)" style="fill: #008000; fill-opacity: 0.5; stroke: #ffffff; stroke-width: 0.8; stroke-linejoin: miter"/>
   </g>
   <g id="patch_44">
    <path d="M 752.653517 145.092 
L 775.616631 145.092 
L 775.616631 144.02298 
L 752.653517 144.02298 
z
" clip-path="url(#pea13f2a174)" style="fill: #008000; fill-opacity: 0.5; stroke: #ffffff; stroke-width: 0.8; stroke-linejoin: miter"/>
   </g>
   <g id="patch_45">
    <path d="M 775.616631 145.092 
L 798.579744 145.092 
L 798.579744 135.470824 
L 775.616631 135.470824 
z
" clip-path="url(#pea13f2a174)" style="fill: #008000; fill-opacity: 0.5; stroke: #ffffff; stroke-width: 0.8; stroke-linejoin: miter"/>
   </g>
   <g id="patch_46">
    <path d="M 798.579744 145.092 
L 821.542858 145.092 
L 821.542858 122.642588 
L 798.579744 122.642588 
z
" clip-path="url(#pea13f2a174)" style="fill: #008000; fill-opacity: 0.5; stroke: #ffffff; stroke-width: 0.8; stroke-linejoin: miter"/>
   </g>
   <g id="patch_47">
    <path d="M 821.542858 145.092 
L 844.505972 145.092 
L 844.505972 44.604157 
L 821.542858 44.604157 
z
" clip-path="url(#pea13f2a174)" style="fill: #008000; fill-opacity: 0.5; stroke: #ffffff; stroke-width: 0.8; stroke-linejoin: miter"/>
   </g>
   <g id="line2d_72">
    <path d="M 729.690403 140.49195 
L 731.998254 140.539236 
L 734.883067 140.830587 
L 738.921806 141.518466 
L 744.691432 142.521682 
L 748.153208 142.864844 
L 751.038022 142.913505 
L 753.922835 142.708582 
L 756.230686 142.344875 
L 758.538536 141.796885 
L 761.423349 140.863768 
L 764.885125 139.453107 
L 774.69349 135.202249 
L 781.617042 132.462813 
L 783.924893 131.31188 
L 786.232744 129.953013 
L 789.117557 127.995352 
L 795.464146 123.527614 
L 798.348959 121.840054 
L 802.387698 119.822062 
L 805.272511 118.289084 
L 807.580362 116.781932 
L 809.888212 114.934767 
L 812.196063 112.775767 
L 818.542652 106.537361 
L 820.850503 104.697974 
L 823.158353 103.192284 
L 829.504943 99.44911 
L 831.235831 98.104967 
L 833.543681 95.975734 
L 838.159382 91.407085 
L 839.313308 90.510424 
L 840.467233 89.844162 
L 841.621158 89.472994 
L 842.775084 89.453777 
L 843.929009 89.831619 
L 844.505972 90.179532 
L 844.505972 90.179532 
" clip-path="url(#pea13f2a174)" style="fill: none; stroke: #008000; stroke-width: 1.2; stroke-linecap: round"/>
   </g>
   <g id="patch_48">
    <path d="M 723.949625 145.092 
L 723.949625 30.6 
" style="fill: none; stroke: #cccccc; stroke-linejoin: miter; stroke-linecap: square"/>
   </g>
   <g id="patch_49">
    <path d="M 723.949625 145.092 
L 850.24675 145.092 
" style="fill: none; stroke: #cccccc; stroke-linejoin: miter; stroke-linecap: square"/>
   </g>
   <g id="text_54">
    <!-- Charity -->
    <g style="fill: #262626" transform="translate(771.894937 24.6) scale(0.096 -0.096)">
     <defs>
      <path id="ArialMT-68" d="M 422 0 
L 422 4581 
L 984 4581 
L 984 2938 
Q 1378 3394 1978 3394 
Q 2347 3394 2619 3248 
Q 2891 3103 3008 2847 
Q 3125 2591 3125 2103 
L 3125 0 
L 2563 0 
L 2563 2103 
Q 2563 2525 2380 2717 
Q 2197 2909 1863 2909 
Q 1613 2909 1392 2779 
Q 1172 2650 1078 2428 
Q 984 2206 984 1816 
L 984 0 
L 422 0 
z
" transform="scale(0.015625)"/>
     </defs>
     <use xlink:href="#ArialMT-43"/>
     <use xlink:href="#ArialMT-68" x="72.216797"/>
     <use xlink:href="#ArialMT-61" x="127.832031"/>
     <use xlink:href="#ArialMT-72" x="183.447266"/>
     <use xlink:href="#ArialMT-69" x="216.748047"/>
     <use xlink:href="#ArialMT-74" x="238.964844"/>
     <use xlink:href="#ArialMT-79" x="266.748047"/>
    </g>
   </g>
  </g>
  <g id="text_55">
   <!-- Distribution of Scores for each Metric -->
   <g style="fill: #262626" transform="translate(334.18495 15.4458) scale(0.1152 -0.1152)">
    <defs>
     <path id="ArialMT-66" d="M 556 0 
L 556 2881 
L 59 2881 
L 59 3319 
L 556 3319 
L 556 3672 
Q 556 4006 616 4169 
Q 697 4388 901 4523 
Q 1106 4659 1475 4659 
Q 1713 4659 2000 4603 
L 1916 4113 
Q 1741 4144 1584 4144 
Q 1328 4144 1222 4034 
Q 1116 3925 1116 3625 
L 1116 3319 
L 1763 3319 
L 1763 2881 
L 1116 2881 
L 1116 0 
L 556 0 
z
" transform="scale(0.015625)"/>
     <path id="ArialMT-53" d="M 288 1472 
L 859 1522 
Q 900 1178 1048 958 
Q 1197 738 1509 602 
Q 1822 466 2213 466 
Q 2559 466 2825 569 
Q 3091 672 3220 851 
Q 3350 1031 3350 1244 
Q 3350 1459 3225 1620 
Q 3100 1781 2813 1891 
Q 2628 1963 1997 2114 
Q 1366 2266 1113 2400 
Q 784 2572 623 2826 
Q 463 3081 463 3397 
Q 463 3744 659 4045 
Q 856 4347 1234 4503 
Q 1613 4659 2075 4659 
Q 2584 4659 2973 4495 
Q 3363 4331 3572 4012 
Q 3781 3694 3797 3291 
L 3216 3247 
Q 3169 3681 2898 3903 
Q 2628 4125 2100 4125 
Q 1550 4125 1298 3923 
Q 1047 3722 1047 3438 
Q 1047 3191 1225 3031 
Q 1400 2872 2139 2705 
Q 2878 2538 3153 2413 
Q 3553 2228 3743 1945 
Q 3934 1663 3934 1294 
Q 3934 928 3725 604 
Q 3516 281 3123 101 
Q 2731 -78 2241 -78 
Q 1619 -78 1198 103 
Q 778 284 539 648 
Q 300 1013 288 1472 
z
" transform="scale(0.015625)"/>
     <path id="ArialMT-4d" d="M 475 0 
L 475 4581 
L 1388 4581 
L 2472 1338 
Q 2622 884 2691 659 
Q 2769 909 2934 1394 
L 4031 4581 
L 4847 4581 
L 4847 0 
L 4263 0 
L 4263 3834 
L 2931 0 
L 2384 0 
L 1059 3900 
L 1059 0 
L 475 0 
z
" transform="scale(0.015625)"/>
    </defs>
    <use xlink:href="#ArialMT-44"/>
    <use xlink:href="#ArialMT-69" x="72.216797"/>
    <use xlink:href="#ArialMT-73" x="94.433594"/>
    <use xlink:href="#ArialMT-74" x="144.433594"/>
    <use xlink:href="#ArialMT-72" x="172.216797"/>
    <use xlink:href="#ArialMT-69" x="205.517578"/>
    <use xlink:href="#ArialMT-62" x="227.734375"/>
    <use xlink:href="#ArialMT-75" x="283.349609"/>
    <use xlink:href="#ArialMT-74" x="338.964844"/>
    <use xlink:href="#ArialMT-69" x="366.748047"/>
    <use xlink:href="#ArialMT-6f" x="388.964844"/>
    <use xlink:href="#ArialMT-6e" x="444.580078"/>
    <use xlink:href="#ArialMT-20" x="500.195312"/>
    <use xlink:href="#ArialMT-6f" x="527.978516"/>
    <use xlink:href="#ArialMT-66" x="583.59375"/>
    <use xlink:href="#ArialMT-20" x="611.376953"/>
    <use xlink:href="#ArialMT-53" x="639.160156"/>
    <use xlink:href="#ArialMT-63" x="705.859375"/>
    <use xlink:href="#ArialMT-6f" x="755.859375"/>
    <use xlink:href="#ArialMT-72" x="811.474609"/>
    <use xlink:href="#ArialMT-65" x="844.775391"/>
    <use xlink:href="#ArialMT-73" x="900.390625"/>
    <use xlink:href="#ArialMT-20" x="950.390625"/>
    <use xlink:href="#ArialMT-66" x="978.173828"/>
    <use xlink:href="#ArialMT-6f" x="1005.957031"/>
    <use xlink:href="#ArialMT-72" x="1061.572266"/>
    <use xlink:href="#ArialMT-20" x="1094.873047"/>
    <use xlink:href="#ArialMT-65" x="1122.65625"/>
    <use xlink:href="#ArialMT-61" x="1178.271484"/>
    <use xlink:href="#ArialMT-63" x="1233.886719"/>
    <use xlink:href="#ArialMT-68" x="1283.886719"/>
    <use xlink:href="#ArialMT-20" x="1339.501953"/>
    <use xlink:href="#ArialMT-4d" x="1367.285156"/>
    <use xlink:href="#ArialMT-65" x="1450.585938"/>
    <use xlink:href="#ArialMT-74" x="1506.201172"/>
    <use xlink:href="#ArialMT-72" x="1533.984375"/>
    <use xlink:href="#ArialMT-69" x="1567.285156"/>
    <use xlink:href="#ArialMT-63" x="1589.501953"/>
   </g>
  </g>
 </g>
 <defs>
  <clipPath id="pe51cb88da5">
   <rect x="40.624" y="30.6" width="126.297125" height="114.492"/>
  </clipPath>
  <clipPath id="p148160a1b8">
   <rect x="177.289125" y="30.6" width="126.297125" height="114.492"/>
  </clipPath>
  <clipPath id="pf8b50dde03">
   <rect x="313.95425" y="30.6" width="126.297125" height="114.492"/>
  </clipPath>
  <clipPath id="p0e517b7298">
   <rect x="450.619375" y="30.6" width="126.297125" height="114.492"/>
  </clipPath>
  <clipPath id="pac82422a72">
   <rect x="587.2845" y="30.6" width="126.297125" height="114.492"/>
  </clipPath>
  <clipPath id="pea13f2a174">
   <rect x="723.949625" y="30.6" width="126.297125" height="114.492"/>
  </clipPath>
 </defs>
</svg>
