<?xml version="1.0" encoding="UTF-8" standalone="no"?>
<!-- Created with Inkscape (http://www.inkscape.org/) -->

<svg
   sodipodi:docname="logo-bw.svg"
   inkscape:version="1.2.2 (732a01da63, 2022-12-09)"
   xml:space="preserve"
   id="svg5"
   version="1.1"
   viewBox="0 0 83.080597 94.340195"
   height="94.340195mm"
   width="83.080597mm"
   xmlns:inkscape="http://www.inkscape.org/namespaces/inkscape"
   xmlns:sodipodi="http://sodipodi.sourceforge.net/DTD/sodipodi-0.dtd"
   xmlns:xlink="http://www.w3.org/1999/xlink"
   xmlns="http://www.w3.org/2000/svg"
   xmlns:svg="http://www.w3.org/2000/svg"><sodipodi:namedview
     id="namedview7"
     pagecolor="#f8f8f8"
     bordercolor="#000000"
     borderopacity="0.25"
     inkscape:showpageshadow="2"
     inkscape:pageopacity="0"
     inkscape:pagecheckerboard="0"
     inkscape:deskcolor="#d1d1d1"
     inkscape:document-units="mm"
     showgrid="false"
     inkscape:zoom="2.0000001"
     inkscape:cx="321.99999"
     inkscape:cy="98.999997"
     inkscape:window-width="1920"
     inkscape:window-height="1009"
     inkscape:window-x="1912"
     inkscape:window-y="-8"
     inkscape:window-maximized="1"
     inkscape:current-layer="layer1"><inkscape:grid
       type="xygrid"
       id="grid432"
       originx="-126.98258"
       originy="-196.02377" /></sodipodi:namedview><defs
     id="defs2"><linearGradient
       id="linearGradient2786"
       inkscape:swatch="solid"><stop
         style="stop-color:#181818;stop-opacity:1;"
         offset="0"
         id="stop2784" /></linearGradient><linearGradient
       inkscape:collect="always"
       xlink:href="#linearGradient2786"
       id="linearGradient2788"
       x1="65.818222"
       y1="181.12428"
       x2="144.02544"
       y2="181.12428"
       gradientUnits="userSpaceOnUse" /><filter
       id="mask-powermask-path-effect4974_inverse"
       inkscape:label="filtermask-powermask-path-effect4974"
       style="color-interpolation-filters:sRGB"
       height="100"
       width="100"
       x="-50"
       y="-50"><feColorMatrix
         id="mask-powermask-path-effect4974_primitive1"
         values="1"
         type="saturate"
         result="fbSourceGraphic" /><feColorMatrix
         id="mask-powermask-path-effect4974_primitive2"
         values="-1 0 0 0 1 0 -1 0 0 1 0 0 -1 0 1 0 0 0 1 0 "
         in="fbSourceGraphic" /></filter><filter
       id="mask-powermask-path-effect4998_inverse"
       inkscape:label="filtermask-powermask-path-effect4998"
       style="color-interpolation-filters:sRGB"
       height="100"
       width="100"
       x="-50"
       y="-50"><feColorMatrix
         id="mask-powermask-path-effect4998_primitive1"
         values="1"
         type="saturate"
         result="fbSourceGraphic" /><feColorMatrix
         id="mask-powermask-path-effect4998_primitive2"
         values="-1 0 0 0 1 0 -1 0 0 1 0 0 -1 0 1 0 0 0 1 0 "
         in="fbSourceGraphic" /></filter><filter
       id="mask-powermask-path-effect5010_inverse"
       inkscape:label="filtermask-powermask-path-effect5010"
       style="color-interpolation-filters:sRGB"
       height="100"
       width="100"
       x="-50"
       y="-50"><feColorMatrix
         id="mask-powermask-path-effect5010_primitive1"
         values="1"
         type="saturate"
         result="fbSourceGraphic" /><feColorMatrix
         id="mask-powermask-path-effect5010_primitive2"
         values="-1 0 0 0 1 0 -1 0 0 1 0 0 -1 0 1 0 0 0 1 0 "
         in="fbSourceGraphic" /></filter><filter
       id="mask-powermask-path-effect5754_inverse"
       inkscape:label="filtermask-powermask-path-effect5754"
       style="color-interpolation-filters:sRGB"
       height="100"
       width="100"
       x="-50"
       y="-50"><feColorMatrix
         id="mask-powermask-path-effect5754_primitive1"
         values="1"
         type="saturate"
         result="fbSourceGraphic" /><feColorMatrix
         id="mask-powermask-path-effect5754_primitive2"
         values="-1 0 0 0 1 0 -1 0 0 1 0 0 -1 0 1 0 0 0 1 0 "
         in="fbSourceGraphic" /></filter><filter
       id="mask-powermask-path-effect6502_inverse"
       inkscape:label="filtermask-powermask-path-effect6502"
       style="color-interpolation-filters:sRGB"
       height="100"
       width="100"
       x="-50"
       y="-50"><feColorMatrix
         id="mask-powermask-path-effect6502_primitive1"
         values="1"
         type="saturate"
         result="fbSourceGraphic" /><feColorMatrix
         id="mask-powermask-path-effect6502_primitive2"
         values="-1 0 0 0 1 0 -1 0 0 1 0 0 -1 0 1 0 0 0 1 0 "
         in="fbSourceGraphic" /></filter></defs><g
     inkscape:label="Livello 1"
     inkscape:groupmode="layer"
     id="layer1"
     transform="translate(-63.491287,-98.011887)"><path
       id="rect1307"
       style="fill:none;fill-opacity:0;stroke:#181818"
       d="M 63.994774,98.511887 H 146.07188 V 168.12453 H 63.994774 Z" /><path
       style="fill:none;fill-opacity:1;stroke:#181818;stroke-width:4;stroke-linecap:round;stroke-linejoin:round;stroke-dasharray:none;stroke-opacity:1"
       d="m 122.27321,119.74487 -5.28438,41.91676 H 88.329302 l -5.28438,-41.91676 m 39.228778,-8.9e-4 -4.09602,0.008 -1.18837,41.90822 m 17.87881,0.0199 -22.40569,-0.0141 m 5.93286,-41.93343 -4.09602,0.008 -1.18837,41.90822 M 82.996772,119.83474 c -0.633985,-2.76363 -7.137167,3.23497 -4.890108,-5.71802 1.149047,-4.57817 6.593086,-2.63225 9.182054,-3.71501 3.612813,-1.51095 4.712367,-3.38833 8.256568,-3.5156 4.411893,-0.15843 5.612134,2.51315 11.243564,2.77253 3.39934,0.15657 6.42879,-1.77655 10.41752,-1.35847 3.63847,0.38137 9.60487,3.43286 9.90721,8.17672 0.16821,2.63939 -0.81306,5.05202 -4.73885,3.3472 m -6.24914,-0.0691 -11.17904,-0.0414 c -5.19756,-0.0192 -2.67907,6.95042 -6.464004,8.02455 -4.910864,1.39365 -5.227438,-1.95818 -5.37016,-4.00923 -0.181079,-2.60226 -0.154103,-4.73077 -5.349063,-4.67085 l -4.994289,0.0576"
       id="path436-7"
       sodipodi:nodetypes="cccccccccccccssssssccssssc"
       inkscape:label="path436-7" /><path
       d="m 121.79991,126.88442 c -0.40917,3.14982 13.9813,-9.96187 12.24283,10.10502 -1.37813,15.90746 -15.39478,10.58207 -15.83514,14.07513"
       style="fill:none;stroke:#181818;stroke-width:4;stroke-linecap:round;stroke-linejoin:round;stroke-dasharray:none;stroke-opacity:1"
       id="path1220"
       sodipodi:nodetypes="csc" /><rect
       style="fill:#181818;fill-opacity:1;stroke:none;stroke-width:1;stroke-linecap:butt;stroke-linejoin:bevel;stroke-dasharray:none;stroke-opacity:1"
       id="rect1779"
       width="83.079163"
       height="24.077084"
       x="63.491287"
       y="168.27499" /><g
       aria-label="Cake Mug"
       id="text2147"
       style="font-weight:bold;font-size:16.2278px;font-family:'Yu Gothic';-inkscape-font-specification:'Yu Gothic Bold';mix-blend-mode:screen;fill:#f8f8f8;fill-opacity:1"><path
         d="m 76.07153,176.98017 -2.12356,0.51505 q -0.4675,-2.66238 -2.646526,-2.66238 -1.545127,0 -2.385043,1.37873 -0.776525,1.2678 -0.776525,3.45475 0,2.48805 1.006314,3.77962 0.831991,1.06178 2.155254,1.06178 2.25034,0 2.773306,-2.69407 l 2.068094,0.6339 q -0.966695,3.74792 -4.857247,3.74792 -2.662374,0 -4.144111,-1.92546 -1.323263,-1.71945 -1.323263,-4.57992 0,-3.28835 1.711525,-5.05534 1.450043,-1.48966 3.755849,-1.48966 2.044322,0 3.327967,1.15686 1.093475,0.99047 1.457966,2.67822 z"
         id="path440"
         style="fill:#f8f8f8;fill-opacity:1" /><path
         d="m 77.711743,179.30183 q 0.689364,-2.45636 3.684534,-2.45636 3.454747,0 3.454747,2.95555 v 3.53399 q 0,1.29156 0.142627,2.63068 h -1.877924 q -0.08716,-0.4992 -0.150551,-1.16479 -0.958771,1.37873 -2.805001,1.37873 -1.323263,0 -2.076017,-0.80822 -0.665593,-0.71314 -0.665593,-1.83831 0,-2.37712 2.908009,-2.9397 1.077627,-0.20602 2.543517,-0.25356 v -0.50712 q 0,-0.88746 -0.419957,-1.25988 -0.364492,-0.31694 -1.12517,-0.31694 -0.697288,0 -1.156865,0.45165 -0.419958,0.41203 -0.546737,1.10932 z m 5.158348,2.29788 q -1.022161,0.0238 -2.044322,0.26148 -1.457967,0.34865 -1.457967,1.51344 0,1.34703 1.426272,1.34703 1.299492,0 2.076017,-1.46589 z"
         id="path442"
         style="fill:#f8f8f8;fill-opacity:1" /><path
         d="m 94.93001,177.05941 -2.971399,3.32797 3.137797,5.57831 h -2.242416 l -2.202797,-4.19958 -1.220254,1.34703 v 2.85255 h -2.012628 v -12.8206 h 2.012628 v 7.80487 l 3.209111,-3.89055 z"
         id="path444"
         style="fill:#f8f8f8;fill-opacity:1" /><path
         d="m 104.14531,181.95628 h -6.022036 q 0.01585,1.39457 0.649746,2.1394 0.578432,0.67352 1.59267,0.67352 1.43419,0 1.87792,-1.69568 l 1.85416,0.53882 q -0.83992,2.58313 -3.75585,2.58313 -2.131485,0 -3.240808,-1.37873 -0.974618,-1.2044 -0.974618,-3.24873 0,-2.31372 1.267796,-3.59737 1.085552,-1.10932 2.77331,-1.10932 1.88584,0 2.97932,1.3708 0.99839,1.24403 0.99839,3.3042 z m -1.99678,-1.34704 q -0.15055,-2.3375 -1.94924,-2.3375 -0.974618,0 -1.513431,0.71314 -0.459577,0.61013 -0.53089,1.62436 z"
         id="path446"
         style="fill:#f8f8f8;fill-opacity:1" /><path
         d="m 104.89014,185.93399 q 0,0 0,0 z"
         id="path448"
         style="fill:#f8f8f8;fill-opacity:1" /><path
         d="m 123.45544,173.37488 v 12.59081 h -2.09187 v -6.36276 q 0,-1.45797 0.0317,-4.44521 h -0.22979 q -0.61013,2.74161 -1.03801,4.28674 l -1.7036,6.52123 h -2.55936 l -1.65606,-6.442 q -0.15056,-0.57051 -1.06971,-4.36597 h -0.22979 q 0.0476,2.18695 0.0476,4.4769 v 6.33107 h -1.93339 v -12.59081 h 3.55775 l 1.58475,6.42614 q 0.53881,2.14733 0.91123,4.15204 h 0.22978 q 0.13471,-0.53089 0.50712,-2.1711 0.26941,-1.18064 0.4675,-1.94924 l 1.60852,-6.45784 z"
         id="path450"
         style="fill:#f8f8f8;fill-opacity:1" /><path
         d="m 133.68498,177.05941 v 8.90628 h -1.98094 v -1.53721 q -0.51504,0.87161 -1.33911,1.34704 -0.72898,0.41995 -1.55305,0.41995 -1.21233,0 -1.91754,-0.74483 -0.65767,-0.70521 -0.65767,-1.88584 v -6.50539 h 2.09186 v 5.91903 q 0,1.46589 1.25195,1.46589 0.60221,0 1.22026,-0.49127 0.52296,-0.41996 0.83991,-1.03801 v -5.85564 z"
         id="path452"
         style="fill:#f8f8f8;fill-opacity:1" /><path
         d="m 143.99375,175.82331 -0.12678,1.64021 q -0.68144,0 -1.03801,0.11886 -0.27733,0.0951 -0.55466,0.34072 0.72898,0.75275 0.72898,1.78284 0,1.45796 -1.10932,2.25826 -0.935,0.68144 -2.39297,0.68144 -0.61805,0 -1.15686,-0.15055 -0.64975,0.32487 -0.64975,0.77653 0,0.31695 0.26941,0.45165 0.2694,0.1347 0.96669,0.19809 l 2.01263,0.1664 q 1.79076,0.17432 2.51182,0.82407 0.57051,0.53089 0.57051,1.48174 0,1.29156 -1.30741,2.0364 -1.19649,0.67351 -3.1695,0.67351 -2.02847,0 -3.1061,-0.67351 -0.9033,-0.57051 -0.9033,-1.48967 0,-1.14101 1.64021,-1.73529 -1.25195,-0.27733 -1.25195,-1.28365 0,-0.99046 1.36288,-1.84623 -1.2678,-0.80822 -1.2678,-2.35334 0,-1.37873 1.10933,-2.17111 0.94292,-0.68936 2.38504,-0.68936 1.1014,0 1.89377,0.42788 0.4675,-0.84784 1.10932,-1.17271 0.56259,-0.29318 1.47382,-0.29318 z m -4.48483,2.24242 q -0.75276,0 -1.21234,0.49127 -0.40411,0.44373 -0.40411,1.13309 0,0.89538 0.51505,1.36288 0.42788,0.38827 1.1014,0.38827 0.77652,0 1.22025,-0.4992 0.40411,-0.4675 0.40411,-1.2361 0,-0.80822 -0.53089,-1.2678 -0.4358,-0.37241 -1.09347,-0.37241 z m -1.1014,7.38491 q -1.19649,0.38034 -1.19649,1.21233 0,0.61805 0.76068,0.95085 0.64975,0.28526 1.68776,0.28526 1.33118,0 2.0364,-0.39619 0.56258,-0.31695 0.56258,-0.78445 0,-0.50712 -0.36449,-0.72898 -0.36449,-0.21394 -1.27572,-0.30903 z"
         id="path454"
         style="fill:#f8f8f8;fill-opacity:1" /></g><circle
       style="fill:#181818;fill-opacity:1;stroke:none;stroke-width:4;stroke-linecap:butt;stroke-linejoin:miter;stroke-dasharray:none;stroke-opacity:1"
       id="path7024"
       cy="112.19714"
       cx="95.966278"
       r="1.5234194" /><circle
       style="fill:#181818;fill-opacity:1;stroke:none;stroke-width:4;stroke-linecap:butt;stroke-linejoin:miter;stroke-dasharray:none;stroke-opacity:1"
       id="path7024-9"
       cy="115.1599"
       cx="117.40885"
       r="0.79581523" /><circle
       style="fill:#181818;fill-opacity:1;stroke:none;stroke-width:4;stroke-linecap:butt;stroke-linejoin:miter;stroke-dasharray:none;stroke-opacity:1"
       id="path7024-9-3"
       cy="116.28438"
       cx="106.42865"
       r="1.258836" /><circle
       style="fill:#181818;fill-opacity:1;stroke:none;stroke-width:4;stroke-linecap:butt;stroke-linejoin:miter;stroke-dasharray:none;stroke-opacity:1"
       id="path7024-9-33"
       cy="115.22604"
       cx="84.468224"
       r="0.79581523" /></g></svg>
