<?xml version="1.0" encoding="UTF-8" standalone="no"?>
<!-- Created with Inkscape (http://www.inkscape.org/) -->

<svg
   width="210mm"
   height="297mm"
   viewBox="0 0 210 297"
   version="1.1"
   id="svg5"
   inkscape:version="1.2.2 (732a01da63, 2022-12-09)"
   sodipodi:docname="logo-app.svg"
   xmlns:inkscape="http://www.inkscape.org/namespaces/inkscape"
   xmlns:sodipodi="http://sodipodi.sourceforge.net/DTD/sodipodi-0.dtd"
   xmlns="http://www.w3.org/2000/svg"
   xmlns:svg="http://www.w3.org/2000/svg">
  <sodipodi:namedview
     id="namedview7"
     pagecolor="#ffffff"
     bordercolor="#000000"
     borderopacity="0.25"
     inkscape:showpageshadow="2"
     inkscape:pageopacity="0.0"
     inkscape:pagecheckerboard="0"
     inkscape:deskcolor="#d1d1d1"
     inkscape:document-units="mm"
     showgrid="false"
     inkscape:zoom="4.1776837"
     inkscape:cx="199.03374"
     inkscape:cy="574.24166"
     inkscape:window-width="1920"
     inkscape:window-height="1009"
     inkscape:window-x="1912"
     inkscape:window-y="-8"
     inkscape:window-maximized="1"
     inkscape:current-layer="layer1" />
  <defs
     id="defs2" />
  <g
     inkscape:label="Livello 1"
     inkscape:groupmode="layer"
     id="layer1">
    <path
       style="fill:none;stroke:#181818;stroke-width:2;stroke-linecap:round;stroke-linejoin:round"
       id="path234-8"
       sodipodi:type="arc"
       sodipodi:cx="-81.836075"
       sodipodi:cy="-153.03432"
       sodipodi:rx="11.684854"
       sodipodi:ry="11.684854"
       sodipodi:start="0"
       sodipodi:end="1.8325957"
       sodipodi:arc-type="arc"
       d="m -70.151221,-153.03432 a 11.684854,11.684854 0 0 1 -4.571566,9.27022 11.684854,11.684854 0 0 1 -10.13755,2.01648"
       transform="scale(-1)"
       sodipodi:open="true" />
    <path
       style="fill:none;stroke:#181818;stroke-width:2;stroke-linecap:round;stroke-linejoin:round"
       id="path234-8-2"
       sodipodi:type="arc"
       sodipodi:cx="-81.952263"
       sodipodi:cy="-153.28781"
       sodipodi:rx="8.1382313"
       sodipodi:ry="8.1382313"
       sodipodi:start="0"
       sodipodi:end="1.8325957"
       sodipodi:arc-type="arc"
       d="m -73.814032,-153.28781 a 8.1382313,8.1382313 0 0 1 -3.18399,6.45649 8.1382313,8.1382313 0 0 1 -7.06057,1.40444"
       transform="scale(-1)"
       sodipodi:open="true" />
    <path
       style="fill:none;stroke:#181818;stroke-width:2;stroke-linecap:round;stroke-linejoin:round"
       id="path234-8-2-7"
       sodipodi:type="arc"
       sodipodi:cx="-82.015366"
       sodipodi:cy="-153.1134"
       sodipodi:rx="4.5282764"
       sodipodi:ry="4.5282764"
       sodipodi:start="0"
       sodipodi:end="1.8325957"
       sodipodi:arc-type="arc"
       d="m -77.487089,-153.1134 a 4.5282764,4.5282764 0 0 1 -1.771637,3.59252 4.5282764,4.5282764 0 0 1 -3.928644,0.78146"
       transform="scale(-1)"
       sodipodi:open="true" />
    <path
       style="fill:#f2f2f2;stroke:#181818;stroke-width:2;stroke-linecap:round;stroke-linejoin:round"
       id="path234"
       sodipodi:type="arc"
       sodipodi:cx="82.04731"
       sodipodi:cy="152.91643"
       sodipodi:rx="10.610065"
       sodipodi:ry="10.610065"
       sodipodi:start="5.4977871"
       sodipodi:end="2.3561945"
       sodipodi:arc-type="slice"
       d="m 89.549759,145.41398 a 10.610065,10.610065 0 0 1 2.746087,10.24853 10.610065,10.610065 0 0 1 -7.502449,7.50245 10.610065,10.610065 0 0 1 -10.248536,-2.74608 l 7.502449,-7.50245 z" />
    <path
       style="fill:#f2f2f2;stroke:#181818;stroke-width:2;stroke-linecap:round;stroke-linejoin:round"
       id="path234-2"
       sodipodi:type="arc"
       sodipodi:cx="82.141083"
       sodipodi:cy="153.01019"
       sodipodi:rx="5.6592603"
       sodipodi:ry="5.6592603"
       sodipodi:start="5.4977871"
       sodipodi:end="2.3561945"
       sodipodi:arc-type="slice"
       d="m 86.142784,149.00849 a 5.6592603,5.6592603 0 0 1 1.464724,5.46643 5.6592603,5.6592603 0 0 1 -4.001701,4.0017 5.6592603,5.6592603 0 0 1 -5.466426,-1.46473 l 4.001702,-4.0017 z" />
    <path
       style="fill:#181818;fill-opacity:1;stroke:none;stroke-width:2;stroke-linecap:round;stroke-linejoin:round;stroke-opacity:1"
       id="path5209-6"
       sodipodi:type="arc"
       sodipodi:cx="-49.896305"
       sodipodi:cy="167.16829"
       sodipodi:rx="1.4819496"
       sodipodi:ry="1.4819496"
       sodipodi:start="0"
       sodipodi:end="3.1415927"
       sodipodi:arc-type="slice"
       d="m -48.414356,167.16829 a 1.4819496,1.4819496 0 0 1 -0.740974,1.28341 1.4819496,1.4819496 0 0 1 -1.48195,0 1.4819496,1.4819496 0 0 1 -0.740975,-1.28341 h 1.48195 z"
       transform="rotate(-45)" />
    <path
       style="fill:#181818;fill-opacity:1;stroke:none;stroke-width:2;stroke-linecap:round;stroke-linejoin:round;stroke-opacity:1"
       id="path5209-6-6"
       sodipodi:type="arc"
       sodipodi:cx="-172.09921"
       sodipodi:cy="11.659064"
       sodipodi:rx="0.84990466"
       sodipodi:ry="0.84990466"
       sodipodi:start="0"
       sodipodi:end="3.1415927"
       sodipodi:arc-type="slice"
       d="m -171.24931,11.659064 a 0.84990466,0.84990466 0 0 1 -0.42495,0.736039 0.84990466,0.84990466 0 0 1 -0.8499,0 0.84990466,0.84990466 0 0 1 -0.42496,-0.736039 h 0.84991 z"
       transform="rotate(-118.10371)" />
    <path
       style="fill:#181818;fill-opacity:1;stroke:none;stroke-width:2;stroke-linecap:round;stroke-linejoin:round;stroke-opacity:1"
       id="path5209-6-6-3"
       sodipodi:type="arc"
       sodipodi:cx="-176.32854"
       sodipodi:cy="11.394091"
       sodipodi:rx="0.84990466"
       sodipodi:ry="0.84990466"
       sodipodi:start="0"
       sodipodi:end="3.1415927"
       sodipodi:arc-type="slice"
       d="m -175.47863,11.394091 a 0.84990466,0.84990466 0 0 1 -0.42495,0.736039 0.84990466,0.84990466 0 0 1 -0.84991,0 0.84990466,0.84990466 0 0 1 -0.42495,-0.736039 h 0.8499 z"
       transform="rotate(-118.10371)" />
    <path
       style="fill:#181818;fill-opacity:1;stroke:none;stroke-width:2;stroke-linecap:round;stroke-linejoin:round;stroke-opacity:1"
       id="path5209-6-6-4"
       sodipodi:type="arc"
       sodipodi:cx="-124.45004"
       sodipodi:cy="131.98386"
       sodipodi:rx="0.84990466"
       sodipodi:ry="0.84990466"
       sodipodi:start="0"
       sodipodi:end="3.1415927"
       sodipodi:arc-type="slice"
       d="m -123.60014,131.98386 a 0.84990466,0.84990466 0 0 1 -0.42495,0.73604 0.84990466,0.84990466 0 0 1 -0.84991,0 0.84990466,0.84990466 0 0 1 -0.42495,-0.73604 h 0.84991 z"
       transform="rotate(-74.198938)" />
    <path
       style="fill:#181818;fill-opacity:1;stroke:none;stroke-width:2;stroke-linecap:round;stroke-linejoin:round;stroke-opacity:1"
       id="path5209-6-6-0"
       sodipodi:type="arc"
       sodipodi:cx="-50.762032"
       sodipodi:cy="176.99791"
       sodipodi:rx="0.84990466"
       sodipodi:ry="0.84990466"
       sodipodi:start="0"
       sodipodi:end="3.1415927"
       sodipodi:arc-type="slice"
       d="m -49.912127,176.99791 a 0.84990466,0.84990466 0 0 1 -0.424952,0.73604 0.84990466,0.84990466 0 0 1 -0.849905,0 0.84990466,0.84990466 0 0 1 -0.424952,-0.73604 h 0.849904 z"
       transform="rotate(-45.60345)" />
    <path
       style="fill:#181818;fill-opacity:1;stroke:none;stroke-width:2;stroke-linecap:round;stroke-linejoin:round;stroke-opacity:1"
       id="path5209-6-6-2"
       sodipodi:type="arc"
       sodipodi:cx="7.7900343"
       sodipodi:cy="184.79909"
       sodipodi:rx="0.84990466"
       sodipodi:ry="0.84990466"
       sodipodi:start="0"
       sodipodi:end="3.1415927"
       sodipodi:arc-type="slice"
       d="m 8.639939,184.79909 a 0.84990466,0.84990466 0 0 1 -0.4249524,0.73604 0.84990466,0.84990466 0 0 1 -0.8499047,0 0.84990466,0.84990466 0 0 1 -0.4249523,-0.73604 h 0.8499047 z"
       transform="rotate(-25.514273)" />
    <path
       style="fill:#181818;fill-opacity:1;stroke:none;stroke-width:2;stroke-linecap:round;stroke-linejoin:round;stroke-opacity:1"
       id="path5209-6-6-62"
       sodipodi:type="arc"
       sodipodi:cx="82.56749"
       sodipodi:cy="163.52089"
       sodipodi:rx="0.84990466"
       sodipodi:ry="0.84990466"
       sodipodi:start="0"
       sodipodi:end="3.1415927"
       sodipodi:arc-type="slice"
       d="m 83.417394,163.52089 a 0.84990466,0.84990466 0 0 1 -0.424952,0.73604 0.84990466,0.84990466 0 0 1 -0.849905,0 0.84990466,0.84990466 0 0 1 -0.424952,-0.73604 h 0.849905 z"
       transform="rotate(0.49023676)" />
    <path
       style="fill:#181818;fill-opacity:1;stroke:none;stroke-width:2;stroke-linecap:round;stroke-linejoin:round;stroke-opacity:1"
       id="path5209-6-6-7"
       sodipodi:type="arc"
       sodipodi:cx="145.98965"
       sodipodi:cy="105.51052"
       sodipodi:rx="0.84990466"
       sodipodi:ry="0.84990466"
       sodipodi:start="0"
       sodipodi:end="3.1415927"
       sodipodi:arc-type="slice"
       d="m 146.83956,105.51052 a 0.84990466,0.84990466 0 0 1 -0.42495,0.73604 0.84990466,0.84990466 0 0 1 -0.84991,0 0.84990466,0.84990466 0 0 1 -0.42495,-0.73604 h 0.8499 z"
       transform="rotate(28.974391)" />
    <path
       style="fill:none;stroke:#181818;stroke-width:2;stroke-linecap:round;stroke-linejoin:round"
       id="path234-8-5"
       sodipodi:type="arc"
       sodipodi:cx="-50.438087"
       sodipodi:cy="-155.61531"
       sodipodi:rx="11.684854"
       sodipodi:ry="11.684854"
       sodipodi:start="0"
       sodipodi:end="1.8325957"
       sodipodi:arc-type="arc"
       d="m -38.753234,-155.61531 a 11.684854,11.684854 0 0 1 -4.571565,9.27022 11.684854,11.684854 0 0 1 -10.137551,2.01648"
       transform="scale(-1)"
       sodipodi:open="true" />
    <path
       style="fill:none;stroke:#181818;stroke-width:2;stroke-linecap:round;stroke-linejoin:round"
       id="path234-8-2-2"
       sodipodi:type="arc"
       sodipodi:cx="-50.554276"
       sodipodi:cy="-155.8688"
       sodipodi:rx="8.1382313"
       sodipodi:ry="8.1382313"
       sodipodi:start="0"
       sodipodi:end="1.8325957"
       sodipodi:arc-type="arc"
       d="m -42.416044,-155.8688 a 8.1382313,8.1382313 0 0 1 -3.18399,6.45649 8.1382313,8.1382313 0 0 1 -7.060571,1.40443"
       transform="scale(-1)"
       sodipodi:open="true" />
    <path
       style="fill:none;stroke:#181818;stroke-width:2;stroke-linecap:round;stroke-linejoin:round"
       id="path234-8-2-7-6"
       sodipodi:type="arc"
       sodipodi:cx="-50.617378"
       sodipodi:cy="-155.6944"
       sodipodi:rx="4.5282764"
       sodipodi:ry="4.5282764"
       sodipodi:start="0"
       sodipodi:end="1.8325957"
       sodipodi:arc-type="arc"
       d="m -46.089102,-155.6944 a 4.5282764,4.5282764 0 0 1 -1.771636,3.59253 4.5282764,4.5282764 0 0 1 -3.928644,0.78145"
       transform="scale(-1)"
       sodipodi:open="true" />
    <path
       style="fill:#f2f2f2;stroke:#181818;stroke-width:2;stroke-linecap:round;stroke-linejoin:round"
       id="path234-26"
       sodipodi:type="arc"
       sodipodi:cx="50.649323"
       sodipodi:cy="155.49742"
       sodipodi:rx="12.066714"
       sodipodi:ry="12.066714"
       sodipodi:start="5.4977871"
       sodipodi:end="2.3561945"
       sodipodi:arc-type="slice"
       d="m 59.181778,146.96497 a 12.066714,12.066714 0 0 1 3.123096,11.65555 12.066714,12.066714 0 0 1 -8.532456,8.53245 12.066714,12.066714 0 0 1 -11.655551,-3.12309 l 8.532456,-8.53246 z" />
    <path
       style="fill:#181818;fill-opacity:1;stroke:#181818;stroke-width:2;stroke-linecap:round;stroke-linejoin:round"
       id="path234-2-8"
       sodipodi:type="arc"
       sodipodi:cx="50.743095"
       sodipodi:cy="155.59119"
       sodipodi:rx="3.0626261"
       sodipodi:ry="3.0626261"
       sodipodi:start="5.4977871"
       sodipodi:end="2.3561945"
       sodipodi:arc-type="slice"
       d="m 52.908699,153.42558 a 3.0626261,3.0626261 0 0 1 0.792666,2.95827 3.0626261,3.0626261 0 0 1 -2.165604,2.16561 3.0626261,3.0626261 0 0 1 -2.958269,-0.79267 l 2.165603,-2.1656 z" />
    <path
       style="fill:#181818;fill-opacity:1;stroke:#181818;stroke-width:2;stroke-linecap:round;stroke-linejoin:round;stroke-opacity:1"
       d="m 49.906042,160.92799 -1.26665,3.98996"
       id="path8791"
       sodipodi:nodetypes="cc" />
    <path
       style="fill:#181818;fill-opacity:1;stroke:#181818;stroke-width:2;stroke-linecap:round;stroke-linejoin:round;stroke-opacity:1"
       d="m 54.655986,159.28134 3.103294,2.9133"
       id="path8813"
       sodipodi:nodetypes="cc" />
    <path
       style="fill:#181818;fill-opacity:1;stroke:#181818;stroke-width:2;stroke-linecap:round;stroke-linejoin:round;stroke-opacity:1"
       d="m 55.922635,154.7214 4.24328,-1.01332"
       id="path8815"
       sodipodi:nodetypes="cc" />
    <path
       style="fill:#181818;fill-opacity:1;stroke:#181818;stroke-width:1;stroke-linecap:round;stroke-linejoin:round;stroke-dasharray:none;stroke-opacity:1"
       d="m 52.756007,161.87798 0.633327,1.89998"
       id="path10269"
       sodipodi:nodetypes="cc" />
    <path
       style="fill:#181818;fill-opacity:1;stroke:#181818;stroke-width:1;stroke-linecap:round;stroke-linejoin:round;stroke-dasharray:none;stroke-opacity:1"
       d="m 57.252618,157.50804 1.773313,0.44332"
       id="path10271"
       sodipodi:nodetypes="cc" />
  </g>
</svg>
