<?xml version="1.0" encoding="UTF-8" standalone="no"?>
<!-- Created with Inkscape (http://www.inkscape.org/) -->

<svg
   width="83.080597mm"
   height="94.340195mm"
   viewBox="0 0 83.080597 94.340195"
   version="1.1"
   id="svg5"
   xml:space="preserve"
   inkscape:version="1.2.2 (732a01da63, 2022-12-09)"
   sodipodi:docname="logo.svg"
   xmlns:inkscape="http://www.inkscape.org/namespaces/inkscape"
   xmlns:sodipodi="http://sodipodi.sourceforge.net/DTD/sodipodi-0.dtd"
   xmlns="http://www.w3.org/2000/svg"
   xmlns:svg="http://www.w3.org/2000/svg"><sodipodi:namedview
     id="namedview7"
     pagecolor="#181818"
     bordercolor="#000000"
     borderopacity="0.25"
     inkscape:showpageshadow="2"
     inkscape:pageopacity="0"
     inkscape:pagecheckerboard="0"
     inkscape:deskcolor="#d1d1d1"
     inkscape:document-units="mm"
     showgrid="false"
     inkscape:zoom="1.4142136"
     inkscape:cx="44.547727"
     inkscape:cy="205.76807"
     inkscape:window-width="1920"
     inkscape:window-height="1009"
     inkscape:window-x="1912"
     inkscape:window-y="-8"
     inkscape:window-maximized="1"
     inkscape:current-layer="layer1"><inkscape:grid
       type="xygrid"
       id="grid432"
       originx="-63.491288"
       originy="-98.011886" /></sodipodi:namedview><defs
     id="defs2" /><g
     inkscape:label="Livello 1"
     inkscape:groupmode="layer"
     id="layer1"
     transform="translate(-63.491287,-98.011887)"><rect
       style="fill:#181818;fill-opacity:1;stroke:#f8f8f8;stroke-width:1;stroke-linecap:butt;stroke-linejoin:miter;stroke-dasharray:none;stroke-opacity:1"
       id="rect1307"
       width="82.07711"
       height="69.61264"
       x="63.994774"
       y="98.511887" /><path
       style="fill:#181818;fill-opacity:1;stroke:#f8f8f8;stroke-width:4;stroke-linecap:round;stroke-linejoin:round;stroke-dasharray:none;stroke-opacity:1"
       d="m 122.27321,119.74487 -5.28438,41.91676 H 88.329302 l -5.28438,-41.91676 m 39.228778,-8.9e-4 -4.09602,0.008 -1.18837,41.90822 m 17.87881,0.0199 -22.40569,-0.0141 m 5.93286,-41.93343 -4.09602,0.008 -1.18837,41.90822 M 82.996772,119.83474 c -0.633985,-2.76363 -7.137167,3.23497 -4.890108,-5.71802 1.149047,-4.57817 6.593086,-2.63225 9.182054,-3.71501 3.612813,-1.51095 4.712367,-3.38833 8.256568,-3.5156 4.411893,-0.15843 5.612134,2.51315 11.243564,2.77253 3.39934,0.15657 6.42879,-1.77655 10.41752,-1.35847 3.63847,0.38137 9.60487,3.43286 9.90721,8.17672 0.16821,2.63939 -0.81306,5.05202 -4.73885,3.3472 m -6.24914,-0.0691 -11.17904,-0.0414 c -5.19756,-0.0192 -2.67907,6.95042 -6.464004,8.02455 -4.910864,1.39365 -5.227438,-1.95818 -5.37016,-4.00923 -0.181079,-2.60226 -0.154103,-4.73077 -5.349063,-4.67085 l -4.994289,0.0576"
       id="path436-7"
       sodipodi:nodetypes="cccccccccccccssssssccssssc"
       inkscape:label="path436-7" /><path
       d="m 121.79991,126.88442 c -0.40917,3.14982 13.9813,-9.96187 12.24283,10.10502 -1.37813,15.90746 -15.39478,10.58207 -15.83514,14.07513"
       style="fill:none;stroke:#f8f8f8;stroke-width:4;stroke-linecap:round;stroke-linejoin:round;stroke-dasharray:none;stroke-opacity:1"
       id="path1220"
       sodipodi:nodetypes="csc" /><rect
       style="fill:#f8f8f8;fill-opacity:1;stroke:none;stroke-width:1;stroke-linecap:butt;stroke-linejoin:bevel;stroke-dasharray:none;stroke-opacity:1"
       id="rect1779"
       width="83.079163"
       height="24.077084"
       x="63.491287"
       y="168.27499" /><text
       xml:space="preserve"
       style="font-style:normal;font-variant:normal;font-weight:bold;font-stretch:normal;font-size:16.2278px;font-family:'Yu Gothic';-inkscape-font-specification:'Yu Gothic Bold';fill:#181818;fill-opacity:1;stroke:none;stroke-width:1;stroke-linecap:butt;stroke-linejoin:miter;stroke-dasharray:none;stroke-opacity:1"
       x="65.010002"
       y="185.93399"
       id="text2147"><tspan
         sodipodi:role="line"
         id="tspan2145"
         style="font-style:normal;font-variant:normal;font-weight:bold;font-stretch:normal;font-size:16.2278px;font-family:'Yu Gothic';-inkscape-font-specification:'Yu Gothic Bold';fill:#181818;fill-opacity:1;stroke-width:1"
         x="65.010002"
         y="185.93399">Cake Mug</tspan></text><circle
       style="fill:#f8f8f8;fill-opacity:1;stroke:none;stroke-width:4;stroke-linecap:butt;stroke-linejoin:miter;stroke-dasharray:none;stroke-opacity:1"
       id="path7024"
       cy="112.19714"
       cx="95.966278"
       r="1.5234194" /><circle
       style="fill:#f8f8f8;fill-opacity:1;stroke:none;stroke-width:4;stroke-linecap:butt;stroke-linejoin:miter;stroke-dasharray:none;stroke-opacity:1"
       id="path7024-9"
       cy="115.1599"
       cx="117.40885"
       r="0.79581523" /><circle
       style="fill:#f8f8f8;fill-opacity:1;stroke:none;stroke-width:4;stroke-linecap:butt;stroke-linejoin:miter;stroke-dasharray:none;stroke-opacity:1"
       id="path7024-9-3"
       cy="116.28438"
       cx="106.42865"
       r="1.258836" /><circle
       style="fill:#f8f8f8;fill-opacity:1;stroke:none;stroke-width:4;stroke-linecap:butt;stroke-linejoin:miter;stroke-dasharray:none;stroke-opacity:1"
       id="path7024-9-33"
       cy="115.22604"
       cx="84.468224"
       r="0.79581523" /></g></svg>
